<?xml version="1.0" encoding="utf-8"?>
<!-- Generator: Adobe Illustrator 26.0.1, SVG Export Plug-In . SVG Version: 6.00 Build 0)  -->
<svg version="1.1" id="Layer_1" xmlns="http://www.w3.org/2000/svg" xmlns:xlink="http://www.w3.org/1999/xlink" x="0px" y="0px"
	 viewBox="0 0 943 832" style="enable-background:new 0 0 943 832;" xml:space="preserve">
<style type="text/css">
	.st0{opacity:0.49;fill:url(#SVGID_1_);enable-background:new    ;}
	.st1{opacity:0.54;fill:url(#SVGID_00000075143170704086095670000013554158446710370468_);enable-background:new    ;}
	.st2{fill:#00ABDB;}
	.st3{fill:#FFFFFF;}
	.st4{fill:url(#SVGID_00000106123222309627195030000000796626601071456896_);}
	.st5{fill:url(#SVGID_00000013895057125167312900000011103596956021330600_);}
	.st6{fill:url(#SVGID_00000173151732899124447150000017361478885632383671_);}
	.st7{fill:url(#SVGID_00000173880086217381664430000011243455697197318064_);}
	.st8{fill:url(#SVGID_00000014615879928707201590000003503959435476613259_);}
	.st9{fill:url(#SVGID_00000033348164531305743700000007946252228775235997_);}
	.st10{fill:url(#SVGID_00000167358304103908395830000006124739076666301569_);}
	.st11{fill:#B989D0;}
	.st12{fill:url(#SVGID_00000088833814784558226700000017141395606851357335_);}
	.st13{fill:url(#SVGID_00000005977809738988621950000006805690173069937336_);}
	.st14{fill:url(#SVGID_00000100383942036732219110000014663294255697677461_);}
	.st15{fill:url(#SVGID_00000081612370223295254800000017332780422342088354_);}
	.st16{fill:url(#SVGID_00000018220620554322570450000006168138345169685133_);}
	.st17{fill:url(#SVGID_00000078040350389531283980000006223453761914892192_);}
	.st18{fill:url(#SVGID_00000010307352170320192690000015385118015787044764_);}
	.st19{opacity:0.7;fill:#FFFFFF;enable-background:new    ;}
	.st20{fill:url(#SVGID_00000037692474501477176990000015966310333405042820_);}
	.st21{fill:url(#SVGID_00000121990177518118976840000012806097525329133476_);}
	.st22{fill:url(#SVGID_00000127764662295667981380000011262645333043805332_);}
	.st23{fill:url(#SVGID_00000173840254569694321750000007365550368389084060_);}
	.st24{fill:url(#SVGID_00000131337258661512444790000005208502857766384516_);}
	.st25{fill:url(#SVGID_00000076581773430807923330000000357583025709956498_);}
	.st26{fill:url(#SVGID_00000176737270223762944450000002343527853897087625_);}
	.st27{fill:url(#SVGID_00000111161668382658635530000007965145960292096920_);}
	.st28{fill:url(#SVGID_00000076578344781621786930000017708413065088517808_);}
	.st29{fill:url(#SVGID_00000000901258988549658560000010396207827490083724_);}
	.st30{fill:url(#SVGID_00000003792048617140785190000004805512487946889618_);}
	.st31{fill:url(#SVGID_00000062898409239998607110000011783872200832262028_);}
	.st32{fill:url(#SVGID_00000069399770361077929640000008324325161269879951_);}
	.st33{fill:url(#SVGID_00000008145768938349836710000009890207433434257828_);}
	.st34{fill:url(#SVGID_00000096044928193583473210000005780668399482802325_);}
	.st35{fill:url(#SVGID_00000145045657988704224920000010712882839147133325_);}
	.st36{fill:#660099;}
	.st37{fill:url(#SVGID_00000164485875204326273850000014983504715148174481_);}
	.st38{fill:url(#SVGID_00000093872132662827255030000010435090245434823830_);}
	.st39{fill:url(#SVGID_00000031185054177071655880000003766429937136306109_);}
	.st40{fill:none;}
	.st41{fill:url(#SVGID_00000024692319345463519450000009021831669886087101_);}
	.st42{fill:url(#SVGID_00000163045479937333070510000017036627877649422225_);}
	.st43{fill:url(#SVGID_00000093867122594574299840000016277859366515768753_);}
	.st44{fill:url(#SVGID_00000166670037813120514720000009087833235322421682_);}
	.st45{fill:url(#SVGID_00000098924310973747092850000005423799948524580483_);}
	.st46{fill:url(#SVGID_00000153663471492730973130000000152846249763607963_);}
	.st47{fill:url(#SVGID_00000075849388200327630950000012409928659811670946_);}
	.st48{fill:url(#SVGID_00000045612542932022283570000003328933576218160265_);}
	.st49{fill:url(#SVGID_00000138546162960785671610000017648608819467290810_);}
	.st50{fill:url(#SVGID_00000070107260395817619020000002556011745049884600_);}
	.st51{fill:url(#SVGID_00000060745676281398466340000012739094386936871837_);}
	.st52{fill:url(#SVGID_00000067936375530755320060000013138457789889830537_);}
	.st53{fill:url(#SVGID_00000031923064687362681420000008291514185410858912_);}
	.st54{fill:url(#SVGID_00000009559673732568658930000008189649537920123051_);}
	.st55{fill:url(#SVGID_00000179643390421597256470000009375497794842506937_);}
	.st56{fill:url(#SVGID_00000134955197930925943840000012784409224558897595_);}
	.st57{fill:url(#SVGID_00000116929358902813633540000005085340069748586924_);}
	.st58{fill:url(#SVGID_00000019647180878314186270000012378101575200745608_);}
	.st59{fill:url(#SVGID_00000023248573183854348900000008857168550858761905_);}
	.st60{fill:url(#SVGID_00000113311864198808434640000014771156283735250828_);}
	.st61{fill:url(#SVGID_00000039093852026843209730000005759971440795335344_);}
	.st62{fill:url(#SVGID_00000042706159476339170420000013220323167260375968_);}
	.st63{fill:url(#SVGID_00000026133387033467031240000003305070436703868089_);}
	.st64{fill:url(#SVGID_00000130609099187020948280000001432364179550595477_);}
	.st65{fill:url(#SVGID_00000052805094964254553030000003541320434171223230_);}
	.st66{fill:url(#SVGID_00000173150680698596602300000015438759406186345136_);}
	.st67{fill:url(#SVGID_00000152234491767317941890000000306563326166947760_);}
	.st68{fill:url(#SVGID_00000016041050274388213810000016514973190519856042_);}
	.st69{fill:url(#SVGID_00000004544126131231363580000006425931808089494151_);}
	.st70{fill:url(#SVGID_00000050643102030067433950000011790388459009045424_);}
	.st71{fill:url(#SVGID_00000052081700125391727510000017617444577353857703_);}
	.st72{fill:url(#SVGID_00000016762267061581685510000015865436516046296706_);}
	.st73{fill:url(#SVGID_00000020358613927900995040000002726662377800856728_);}
	.st74{fill:url(#SVGID_00000031180851984246814180000005868658626319207340_);}
	.st75{fill:url(#SVGID_00000182492105745648819320000001612946170825509285_);}
	.st76{fill:url(#SVGID_00000127023767651286059760000000249159722779884445_);}
	.st77{opacity:0.1;fill:#14001F;enable-background:new    ;}
	.st78{fill:#D8A594;}
	.st79{display:none;fill:#321A4C;}
	.st80{display:none;fill:#FFD699;}
	.st81{fill:#55057F;}
	.st82{fill:#D19D97;}
	.st83{fill:#461E5F;}
	.st84{fill:#00AADC;}
	.st85{fill:#0055A0;}
	.st86{fill:#CC9892;}
	.st87{fill:#8B3EB7;}
	.st88{fill:#82C8E6;}
	.st89{fill:#EB3D7D;}
	.st90{fill:#CD1E5A;}
	.st91{fill:url(#SVGID_00000155848432322233684620000009329144093891586731_);}
	.st92{fill:url(#SVGID_00000065796125134242760130000011159203071899808922_);}
	.st93{fill:url(#SVGID_00000063608932699872876710000010144530651502321341_);}
	.st94{fill:url(#SVGID_00000037655047853140235410000007974233473767763086_);}
	.st95{fill:url(#SVGID_00000093886210979013840190000006237380801769271705_);}
	.st96{fill:url(#SVGID_00000033350980488526395530000009240185336380534173_);}
</style>
<radialGradient id="SVGID_1_" cx="460.5095" cy="670.2122" r="457.9771" gradientTransform="matrix(1 0 0 0.2283 0 517.1949)" gradientUnits="userSpaceOnUse">
	<stop  offset="4.546958e-03" style="stop-color:#A178B5"/>
	<stop  offset="0.9957" style="stop-color:#A178B5;stop-opacity:0"/>
</radialGradient>
<rect x="1.6" y="668.9" class="st0" width="935.1" height="107.7"/>
<linearGradient id="SVGID_00000156556962747637903540000007043760526905732279_" gradientUnits="userSpaceOnUse" x1="511.0441" y1="-82.0752" x2="518.3185" y2="689.0305" gradientTransform="matrix(1 0 0 1 -25.0403 0)">
	<stop  offset="4.546958e-03" style="stop-color:#A178B5"/>
	<stop  offset="0.8114" style="stop-color:#A178B5;stop-opacity:0"/>
</linearGradient>
<path style="opacity:0.54;fill:url(#SVGID_00000156556962747637903540000007043760526905732279_);enable-background:new    ;" d="
	M65.2,572.8c14-30.7,38-57.4,45.7-89.9c13.6-57-25.9-112.1-36.1-169.7c-9-51,6.5-105.5,41.3-145.3s88.5-64.3,143.1-65.4
	c68.7-1.3,136.6,32.4,204.1,19.9c33.4-6.2,63.3-23.2,95.8-32.8c32.9-9.7,68.9-11.4,101.8-1.5c32.9,9.9,62,32.2,76.1,61.9
	c25.4,53.9-1.1,120.7,26,173.8c28.4,55.8,103.8,74.6,144.6,123.1c31,36.8,38,90.1,17.8,133c-14.3,30.4-41.1,55.9-46.5,88.8
	c-1.9,11.6-1,23.7-4.2,35c-7.6,26.7-36,43.3-64.1,50.9c-70.4,19.1-145.6-2-213.2-28.6s-134.7-59.3-207.7-64.3
	c-56.3-3.9-113.6,9.4-161.6,37.6c-34.4,20.2-114.8,47.9-153.8,7.3C37,668,43.9,619.6,65.2,572.8z"/>
<path class="st2" d="M338.9,275.2l-6.4,5.7c-0.9,0.8-2.3,1-3.4,0.3c-1.9-1.2-3.8-2.1-5.8-2.9c-1.2-0.4-2-1.7-2-3l0.5-8.4
	c0.1-1.6-1.1-2.9-2.7-3l-7.6-0.5c-1.6-0.1-2.9,1.1-3,2.7l-0.5,8.4c-0.1,1.3-1,2.4-2.3,2.7c-2.1,0.5-4.2,1.2-6.1,2.1
	c-1.1,0.5-2.5,0.2-3.3-0.7l-5.7-6.4c-1.1-1.2-2.9-1.3-4.1-0.2l-5.7,5c-1.2,1.1-1.3,2.9-0.2,4.1l5.7,6.4c0.8,0.9,1,2.3,0.3,3.4
	c-1.2,1.9-2.1,3.8-2.9,5.8c-0.4,1.2-1.7,2-3,2l-8.4-0.5c-1.6-0.1-2.9,1.1-3,2.7l-0.5,7.6c-0.1,1.6,1.1,2.9,2.7,3l8.4,0.5
	c1.3,0.1,2.4,1,2.7,2.3c0.5,2.1,1.2,4.2,2.1,6.1c0.5,1.1,0.2,2.5-0.7,3.3l-6.4,5.7c-1.2,1.1-1.3,2.9-0.2,4.1l5,5.7
	c1.1,1.2,2.9,1.3,4.1,0.2l6.4-5.7c0.9-0.8,2.3-1,3.4-0.3c1.9,1.2,3.8,2.1,5.8,2.9c1.2,0.4,2,1.7,2,3l-0.5,8.4
	c-0.1,1.6,1.1,2.9,2.7,3l7.6,0.5c1.6,0.1,2.9-1.1,3-2.7l0.5-8.4c0.1-1.3,1-2.4,2.3-2.7c2.1-0.5,4.2-1.2,6.1-2.1
	c1.1-0.5,2.5-0.2,3.3,0.7l5.7,6.4c1.1,1.2,2.9,1.3,4.1,0.2l5.7-5c1.2-1.1,1.3-2.9,0.2-4.1l-5.7-6.4c-0.8-0.9-1-2.3-0.3-3.4
	c1.2-1.9,2.1-3.8,2.9-5.8c0.4-1.2,1.7-2,3-2l8.4,0.5c1.6,0.1,2.9-1.1,3-2.7l0.5-7.6c0.1-1.6-1.1-2.9-2.7-3l-8.4-0.5
	c-1.3-0.1-2.4-1-2.7-2.3c-0.5-2.1-1.2-4.2-2.1-6.1c-0.5-1.1-0.2-2.5,0.7-3.3l6.4-5.7c1.2-1.1,1.3-2.9,0.2-4.1l-5-5.7
	C341.9,274.3,340.1,274.2,338.9,275.2z M322.5,318.4c-6.1,5.4-15.5,4.9-20.9-1.3c-5.4-6.1-4.9-15.5,1.3-20.9s15.5-4.9,20.9,1.3
	C329.2,303.7,328.7,313,322.5,318.4z"/>
<g>
	<g>
		<path class="st3" d="M223.6,336.7c-0.8-10.9-9.9-19.5-21-19.5H64.3h-12H47c-11.6,0-21,9.5-21,21v191.2c0,4.8,3.9,8.8,8.8,8.8h6.9
			v26.3c0,3.7,2.9,6.6,6.6,6.7V664v3.5c0,1,0.8,1.9,1.9,1.9H58c1,0,1.9-0.8,1.9-1.9V664v-92.8H68V664v3.5c0,1,0.8,1.9,1.9,1.9h7.8
			c1,0,1.9-0.8,1.9-1.9V664v-92.8h100.9V664v3.5c0,1,0.8,1.9,1.9,1.9h7.8c1,0,1.9-0.8,1.9-1.9V664v-92.8h8.1V664v3.5
			c0,1,0.8,1.9,1.9,1.9h7.8c1,0,1.9-0.8,1.9-1.9V664v-92.8h5.4c3.7,0,6.7-3,6.7-6.7V338.3l0,0C223.7,337.8,223.7,337.3,223.6,336.7z
			"/>
		<path class="st3" d="M810.1,203.9H459.5l0,0h-12.2c-8.8,0-15.9,7.1-15.9,15.9v177.3c0,8.8,7.1,15.9,15.9,15.9h350.6l0,0h12.2
			c8.8,0,15.9-7.1,15.9-15.9V219.8C826,211,818.8,203.9,810.1,203.9z"/>
		
			<linearGradient id="SVGID_00000143590238423869416940000006664548137253740705_" gradientUnits="userSpaceOnUse" x1="433.9022" y1="308.45" x2="800.4022" y2="308.45" gradientTransform="matrix(-1 0 0 1 1370.4625 0)">
			<stop  offset="0" style="stop-color:#A178B5"/>
			<stop  offset="1" style="stop-color:#C186E4;stop-opacity:0"/>
		</linearGradient>
		<path style="fill:url(#SVGID_00000143590238423869416940000006664548137253740705_);" d="M797.9,203.9H459.5l0,0h350.6
			c8.8,0,15.9,7.1,15.9,15.9v177.3c0,8.8-7.1,15.9-15.9,15.9h-12.2c8.8,0,15.9-7.1,15.9-15.9V219.8
			C813.8,211,806.7,203.9,797.9,203.9z"/>
		
			<linearGradient id="SVGID_00000158000835947658142970000002259167085005514418_" gradientUnits="userSpaceOnUse" x1="747.8625" y1="1110.8541" x2="747.8625" y2="-123.5929" gradientTransform="matrix(-1 0 0 1 1370.4625 0)">
			<stop  offset="0" style="stop-color:#A178B5"/>
			<stop  offset="1" style="stop-color:#C186E4;stop-opacity:0"/>
		</linearGradient>
		<path style="fill:url(#SVGID_00000158000835947658142970000002259167085005514418_);" d="M431.4,219.8v177.3
			c0,8.8,7.1,15.9,15.9,15.9h350.6l0,0c8.8,0,15.9-7.1,15.9-15.9V219.8c0-8.8-7.1-15.9-15.9-15.9H459.5h-12.2
			C438.5,203.9,431.4,211,431.4,219.8z M444.5,397.1V219.8c0-1.5,1.2-2.8,2.8-2.8h350.6c1.5,0,2.8,1.2,2.8,2.8v177.3
			c0,1.5-1.2,2.8-2.8,2.8H447.3C445.8,399.8,444.5,398.6,444.5,397.1z"/>
		<g>
			
				<linearGradient id="SVGID_00000056392927755972283000000003909737824563419063_" gradientUnits="userSpaceOnUse" x1="608.5251" y1="390.75" x2="1346.0239" y2="390.75" gradientTransform="matrix(-1 0 0 1 1370.4625 0)">
				<stop  offset="0" style="stop-color:#A178B5"/>
				<stop  offset="1" style="stop-color:#C186E4;stop-opacity:0"/>
			</linearGradient>
			<path style="fill:url(#SVGID_00000056392927755972283000000003909737824563419063_);" d="M557.8,381.9h22.4
				c7.3,0,13.2,5.9,13.2,13.2v4.5h-48.8v-4.5C544.6,387.8,550.5,381.9,557.8,381.9z"/>
		</g>
		
			<linearGradient id="SVGID_00000151538941694404238400000003036679692581189544_" gradientUnits="userSpaceOnUse" x1="141.3768" y1="500.05" x2="743.2615" y2="500.05">
			<stop  offset="0" style="stop-color:#A178B5"/>
			<stop  offset="1" style="stop-color:#C186E4;stop-opacity:0"/>
		</linearGradient>
		<path style="fill:url(#SVGID_00000151538941694404238400000003036679692581189544_);" d="M511.5,509.4c-0.9,0-1.6-0.7-1.6-1.6
			s0.7-1.6,1.6-1.6h1c0.5,0,1.1-0.2,1.5-0.4v-10c-0.4-0.3-1-0.4-1.5-0.4h-1c-0.9,0-1.6-0.7-1.6-1.6s0.7-1.6,1.6-1.6h1
			c0.5,0,1,0.1,1.5,0.2v-2.5c0-2.6-2.1-4.6-4.6-4.6h-13.7c-2.6,0-4.6,2.1-4.6,4.6v24.9h23v-5.4c-0.5,0.1-1,0.2-1.5,0.2h-1.1
			L511.5,509.4L511.5,509.4z"/>
		
			<linearGradient id="SVGID_00000106134852062995145570000002746524872888699832_" gradientUnits="userSpaceOnUse" x1="378.1697" y1="500.65" x2="998.4641" y2="500.65">
			<stop  offset="0" style="stop-color:#A178B5"/>
			<stop  offset="1" style="stop-color:#C186E4;stop-opacity:0"/>
		</linearGradient>
		<path style="fill:url(#SVGID_00000106134852062995145570000002746524872888699832_);" d="M514,492.2c-0.5-0.1-1-0.2-1.5-0.2h-1
			c-0.9,0-1.6,0.7-1.6,1.6s0.7,1.6,1.6,1.6h1c0.5,0,1.1,0.2,1.5,0.4c0.9,0.5,1.6,1.5,1.6,2.7v4.7c0,1.1-0.6,2.1-1.6,2.7
			c-0.4,0.3-1,0.4-1.5,0.4h-1c-0.9,0-1.6,0.7-1.6,1.6s0.7,1.6,1.6,1.6h1c0.5,0,1-0.1,1.5-0.2c2.8-0.7,4.9-3.2,4.9-6.2v-4.7
			C518.9,495.4,516.8,492.9,514,492.2z"/>
		
			<linearGradient id="SVGID_00000031892189032584279220000015038687748943481235_" gradientUnits="userSpaceOnUse" x1="-692.5271" y1="427.8" x2="424.2101" y2="427.8">
			<stop  offset="0" style="stop-color:#A178B5"/>
			<stop  offset="1" style="stop-color:#C186E4;stop-opacity:0"/>
		</linearGradient>
		<path style="fill:url(#SVGID_00000031892189032584279220000015038687748943481235_);" d="M202.6,317.3H64.3h-12H47
			c-11.6,0-21,9.5-21,21v191.2c0,4.8,3.9,8.8,8.8,8.8h6.9V337.6c0-3.7,3-6.7,6.7-6.7h3.9H59h14h137.4h6.6c3.4,0,6.2,2.5,6.6,5.8
			C222.8,325.9,213.7,317.3,202.6,317.3z"/>
		
			<linearGradient id="SVGID_00000172409994373489691490000011830280831144715926_" gradientUnits="userSpaceOnUse" x1="-295.2411" y1="451.0512" x2="992.8827" y2="451.0512">
			<stop  offset="0" style="stop-color:#A178B5"/>
			<stop  offset="1" style="stop-color:#C186E4;stop-opacity:0"/>
		</linearGradient>
		<path style="fill:url(#SVGID_00000172409994373489691490000011830280831144715926_);" d="M52.2,564.5v-5.8v-20.5V338.3v-0.7
			c0-3.7,3-6.7,6.7-6.7h-6.7h-3.9c-3.7,0-6.7,3-6.7,6.7v200.6v26.3c0,3.7,2.9,6.6,6.6,6.7h0.1H59C55.2,571.3,52.2,568.3,52.2,564.5z
			"/>
		<path class="st11" d="M223.6,336.7c0,0.5,0.1,1.1,0.1,1.6v-0.7C223.7,337.3,223.7,337,223.6,336.7z"/>
		<path class="st11" d="M210.4,571.3h1.2v-0.1C211.2,571.2,210.8,571.3,210.4,571.3z"/>
		<g>
			
				<linearGradient id="SVGID_00000060011952327672650590000015952213227071907231_" gradientUnits="userSpaceOnUse" x1="-508.3548" y1="451.05" x2="545.6113" y2="451.05">
				<stop  offset="0" style="stop-color:#A178B5"/>
				<stop  offset="0.3235" style="stop-color:#AB7DC4;stop-opacity:0.6765"/>
				<stop  offset="1" style="stop-color:#C186E4;stop-opacity:0"/>
			</linearGradient>
			<path style="fill:url(#SVGID_00000060011952327672650590000015952213227071907231_);" d="M223.6,336.7c-0.4-3.3-3.2-5.8-6.6-5.8
				h-6.6H73H58.9c-3.7,0-6.7,3-6.7,6.7v0.7v199.9v20.5v5.8c0,3.7,3,6.7,6.7,6.7h0.8h8.1h11.6h100.9h11.6h8.1h10.4
				c0.4,0,0.8,0,1.2-0.1v0.1h5.4c3.7,0,6.7-3,6.7-6.7V338.3l0,0C223.7,337.8,223.7,337.3,223.6,336.7z M150,409.5h30.3
				c0.5,0,1,0.4,1,1c0,0.5-0.4,1-1,1H150c-0.5,0-1-0.4-1-1S149.4,409.5,150,409.5z M149,402.7c0-0.5,0.4-1,1-1h30.3c0.5,0,1,0.4,1,1
				c0,0.5-0.4,1-1,1H150C149.4,403.7,149,403.3,149,402.7z M115.4,368.5c0-1.4,1.2-2.6,2.6-2.6h11.3c1.4,0,2.6,1.2,2.6,2.6v39.4
				c0,1.4-1.2,2.6-2.6,2.6H118c-1.4,0-2.6-1.2-2.6-2.6V368.5z M94.7,388.5c0-1.4,1.2-2.6,2.6-2.6h11.3c1.4,0,2.6,1.2,2.6,2.6v19.4
				c0,1.4-1.2,2.6-2.6,2.6H97.3c-1.4,0-2.6-1.2-2.6-2.6C94.7,407.9,94.7,388.5,94.7,388.5z M73,368.5c0-1.4,1.2-2.6,2.6-2.6h11.3
				c1.4,0,2.6,1.2,2.6,2.6v39.4c0,1.4-1.2,2.6-2.6,2.6H75.6c-1.4,0-2.6-1.2-2.6-2.6V368.5z M104.1,539.4H73c-0.5,0-1-0.4-1-1
				s0.4-1,1-1h31.1c0.5,0,1,0.4,1,1S104.7,539.4,104.1,539.4z M135.2,532H73c-0.1,0-0.2,0-0.4-0.1c-0.4-0.1-0.6-0.5-0.6-0.9
				c0-0.5,0.4-1,1-1l0,0h62.2c0.5,0,1,0.4,1,1S135.8,532,135.2,532z M135.2,524.2H73l0,0c-0.5,0-1-0.4-1-1s0.4-1,1-1l0,0h62.2
				c0.5,0,1,0.4,1,1S135.8,524.2,135.2,524.2z M135.2,516.4H73l0,0c-0.5,0-1-0.4-1-1s0.4-1,1-1l0,0h62.2c0.5,0,1,0.4,1,1
				C136.2,515.9,135.8,516.4,135.2,516.4z M200,395.9h-50c-0.5,0-1-0.4-1-1c0-0.5,0.4-1,1-1h50c0.5,0,1,0.4,1,1
				S200.6,395.9,200,395.9z M200,388.2h-50c-0.5,0-1-0.4-1-1c0-0.5,0.4-1,1-1h50c0.5,0,1,0.4,1,1C201,387.7,200.6,388.2,200,388.2z
				 M200,380.4h-50c-0.5,0-1-0.4-1-1c0-0.5,0.4-1,1-1h50c0.5,0,1,0.4,1,1C201,379.9,200.6,380.4,200,380.4z M200,372.6h-50
				c-0.5,0-1-0.4-1-1c0-0.5,0.4-1,1-1h50c0.5,0,1,0.4,1,1S200.6,372.6,200,372.6z"/>
		</g>
		
			<linearGradient id="SVGID_00000134938729009412431380000001624440904240189846_" gradientUnits="userSpaceOnUse" x1="-304.4497" y1="371.6" x2="1345.3108" y2="371.6">
			<stop  offset="0" style="stop-color:#A178B5"/>
			<stop  offset="1" style="stop-color:#C186E4;stop-opacity:0"/>
		</linearGradient>
		<path style="fill:url(#SVGID_00000134938729009412431380000001624440904240189846_);" d="M150,372.6h50c0.5,0,1-0.4,1-1
			c0-0.5-0.4-1-1-1h-50c-0.5,0-1,0.4-1,1S149.4,372.6,150,372.6z"/>
		
			<linearGradient id="SVGID_00000170251311682518844930000003713146726830970554_" gradientUnits="userSpaceOnUse" x1="-304.4497" y1="379.4" x2="1345.3108" y2="379.4">
			<stop  offset="0" style="stop-color:#A178B5"/>
			<stop  offset="1" style="stop-color:#C186E4;stop-opacity:0"/>
		</linearGradient>
		<path style="fill:url(#SVGID_00000170251311682518844930000003713146726830970554_);" d="M150,380.4h50c0.5,0,1-0.4,1-1
			c0-0.5-0.4-1-1-1h-50c-0.5,0-1,0.4-1,1C149,379.9,149.4,380.4,150,380.4z"/>
		
			<linearGradient id="SVGID_00000151519877082575993000000004193279457635982487_" gradientUnits="userSpaceOnUse" x1="-304.4497" y1="387.2" x2="1345.3108" y2="387.2">
			<stop  offset="0" style="stop-color:#A178B5"/>
			<stop  offset="1" style="stop-color:#C186E4;stop-opacity:0"/>
		</linearGradient>
		<path style="fill:url(#SVGID_00000151519877082575993000000004193279457635982487_);" d="M150,388.2h50c0.5,0,1-0.4,1-1
			c0-0.5-0.4-1-1-1h-50c-0.5,0-1,0.4-1,1C149,387.7,149.4,388.2,150,388.2z"/>
		
			<linearGradient id="SVGID_00000169519481817450818990000014775416876011494070_" gradientUnits="userSpaceOnUse" x1="-304.4497" y1="395" x2="1345.3108" y2="395">
			<stop  offset="0" style="stop-color:#A178B5"/>
			<stop  offset="1" style="stop-color:#C186E4;stop-opacity:0"/>
		</linearGradient>
		<path style="fill:url(#SVGID_00000169519481817450818990000014775416876011494070_);" d="M200,394h-50c-0.5,0-1,0.4-1,1
			c0,0.5,0.4,1,1,1h50c0.5,0,1-0.4,1-1S200.6,394,200,394z"/>
		
			<linearGradient id="SVGID_00000002377334337311672220000003078035541785483671_" gradientUnits="userSpaceOnUse" x1="-304.4497" y1="402.7" x2="1345.3108" y2="402.7">
			<stop  offset="0" style="stop-color:#A178B5"/>
			<stop  offset="1" style="stop-color:#C186E4;stop-opacity:0"/>
		</linearGradient>
		<path style="fill:url(#SVGID_00000002377334337311672220000003078035541785483671_);" d="M180.3,401.7H150c-0.5,0-1,0.4-1,1
			c0,0.5,0.4,1,1,1h30.3c0.5,0,1-0.4,1-1C181.3,402.2,180.9,401.7,180.3,401.7z"/>
		
			<linearGradient id="SVGID_00000141453470789429474550000018248733031877285544_" gradientUnits="userSpaceOnUse" x1="-304.4497" y1="410.5" x2="1345.3108" y2="410.5">
			<stop  offset="0" style="stop-color:#A178B5"/>
			<stop  offset="1" style="stop-color:#C186E4;stop-opacity:0"/>
		</linearGradient>
		<path style="fill:url(#SVGID_00000141453470789429474550000018248733031877285544_);" d="M180.3,409.5H150c-0.5,0-1,0.4-1,1
			c0,0.5,0.4,1,1,1h30.3c0.5,0,1-0.4,1-1S180.9,409.5,180.3,409.5z"/>
		<path class="st19" d="M73.7,501.4H200c0.5,0,1-0.4,1-1v-62.7c0-0.5-0.4-1-1-1H73.7c-0.2,0-0.5,0.1-0.6,0.2v64.2
			C73.2,501.3,73.4,501.4,73.7,501.4z"/>
		
			<linearGradient id="SVGID_00000129920865173825065780000003504736340259344275_" gradientUnits="userSpaceOnUse" x1="-109.7533" y1="388.2" x2="766.3847" y2="388.2">
			<stop  offset="0" style="stop-color:#A178B5"/>
			<stop  offset="1" style="stop-color:#C186E4;stop-opacity:0"/>
		</linearGradient>
		<path style="fill:url(#SVGID_00000129920865173825065780000003504736340259344275_);" d="M75.6,410.5h11.3c1.4,0,2.6-1.2,2.6-2.6
			v-39.4c0-1.4-1.2-2.6-2.6-2.6H75.6c-1.4,0-2.6,1.2-2.6,2.6v39.4C73,409.3,74.2,410.5,75.6,410.5z"/>
		
			<linearGradient id="SVGID_00000017511901166286210710000006782129988880784542_" gradientUnits="userSpaceOnUse" x1="-109.7533" y1="388.2" x2="766.3847" y2="388.2">
			<stop  offset="0" style="stop-color:#A178B5"/>
			<stop  offset="1" style="stop-color:#C186E4;stop-opacity:0"/>
		</linearGradient>
		<path style="fill:url(#SVGID_00000017511901166286210710000006782129988880784542_);" d="M129.4,365.9H118c-1.4,0-2.6,1.2-2.6,2.6
			v39.4c0,1.4,1.2,2.6,2.6,2.6h11.3c1.4,0,2.6-1.2,2.6-2.6v-39.4C131.9,367.1,130.8,365.9,129.4,365.9z"/>
		
			<linearGradient id="SVGID_00000018219599044357657210000009326780719732283016_" gradientUnits="userSpaceOnUse" x1="-153.1653" y1="398.2" x2="758.5342" y2="398.2">
			<stop  offset="0" style="stop-color:#A178B5"/>
			<stop  offset="1" style="stop-color:#C186E4;stop-opacity:0"/>
		</linearGradient>
		<path style="fill:url(#SVGID_00000018219599044357657210000009326780719732283016_);" d="M108.6,385.9H97.3
			c-1.4,0-2.6,1.2-2.6,2.6v19.4c0,1.4,1.2,2.6,2.6,2.6h11.3c1.4,0,2.6-1.2,2.6-2.6v-19.4C111.2,387,110.1,385.9,108.6,385.9z"/>
		
			<linearGradient id="SVGID_00000115476428204033032240000015722454160046224288_" gradientUnits="userSpaceOnUse" x1="-304.4497" y1="470.3057" x2="1345.3108" y2="470.3057">
			<stop  offset="0" style="stop-color:#A178B5"/>
			<stop  offset="1" style="stop-color:#C186E4;stop-opacity:0"/>
		</linearGradient>
		<path style="fill:url(#SVGID_00000115476428204033032240000015722454160046224288_);" d="M187.7,446.1l-26.1,27.6l-20.4-18
			c-0.2-0.2-0.5-0.3-0.8-0.2c-0.3,0-0.5,0.2-0.7,0.4l-19.7,27l-19.9-18c-0.2-0.2-0.5-0.3-0.8-0.2c-0.3,0-0.5,0.2-0.7,0.5l-17.4,28.1
			c-0.3,0.5-0.1,1.1,0.3,1.4c0.2,0.1,0.3,0.1,0.5,0.1c0.3,0,0.7-0.2,0.8-0.5l16.8-27.1l19.8,18c0.2,0.2,0.5,0.3,0.8,0.3
			s0.5-0.2,0.7-0.4l19.7-27l20.3,17.9c0.4,0.4,1,0.3,1.4-0.1l26.7-28.3c0.4-0.4,0.4-1,0-1.4C188.7,445.7,188,445.7,187.7,446.1z"/>
		
			<linearGradient id="SVGID_00000176733936117533994620000010897391940295055269_" gradientUnits="userSpaceOnUse" x1="141.7818" y1="601.75" x2="913.4173" y2="601.75">
			<stop  offset="0" style="stop-color:#A178B5"/>
			<stop  offset="1" style="stop-color:#C186E4;stop-opacity:0"/>
		</linearGradient>
		<path style="fill:url(#SVGID_00000176733936117533994620000010897391940295055269_);" d="M611.6,599.7c1.1,1.9,2.9,3.4,5,4.1v-4.1
			H611.6z"/>
		
			<linearGradient id="SVGID_00000163049217345263273110000004371922501680387260_" gradientUnits="userSpaceOnUse" x1="141.7818" y1="602.05" x2="913.4173" y2="602.05">
			<stop  offset="0" style="stop-color:#A178B5"/>
			<stop  offset="1" style="stop-color:#C186E4;stop-opacity:0"/>
		</linearGradient>
		<path style="fill:url(#SVGID_00000163049217345263273110000004371922501680387260_);" d="M632.1,604.3c3-0.3,5.5-2.1,6.9-4.5h-6.9
			V604.3z"/>
		
			<linearGradient id="SVGID_00000003083888472720650770000002823506954589877381_" gradientUnits="userSpaceOnUse" x1="444.6643" y1="595.8" x2="981.5459" y2="595.8">
			<stop  offset="0" style="stop-color:#A178B5"/>
			<stop  offset="1" style="stop-color:#C186E4;stop-opacity:0"/>
		</linearGradient>
		<path style="fill:url(#SVGID_00000003083888472720650770000002823506954589877381_);" d="M616.3,591.9h-13.5h-5.5
			c0.7,4.4,4.5,7.8,9.1,7.8h5.2h5v-4.6v-3.2H616.3z"/>
		
			<linearGradient id="SVGID_00000127029690990988138250000016835565254952420738_" gradientUnits="userSpaceOnUse" x1="444.6643" y1="595.8" x2="981.5459" y2="595.8">
			<stop  offset="0" style="stop-color:#A178B5"/>
			<stop  offset="1" style="stop-color:#C186E4;stop-opacity:0"/>
		</linearGradient>
		<path style="fill:url(#SVGID_00000127029690990988138250000016835565254952420738_);" d="M651.9,591.9h-19.8v3.2v4.6h6.9h5.2
			c4.6,0,8.4-3.4,9.1-7.8H651.9z"/>
		
			<linearGradient id="SVGID_00000031186864417251723770000005456047086781224359_" gradientUnits="userSpaceOnUse" x1="473.2754" y1="484.5" x2="978.8746" y2="484.5">
			<stop  offset="0" style="stop-color:#A178B5"/>
			<stop  offset="1" style="stop-color:#C186E4;stop-opacity:0"/>
		</linearGradient>
		<path style="fill:url(#SVGID_00000031186864417251723770000005456047086781224359_);" d="M566.4,514.5l-3.9-42.1
			c-1-9.6,6.6-17.9,16.2-17.9h-17.2c-9.6,0-17.1,8.3-16.2,17.8l4,42.2h0.3H566.4z"/>
		<path class="st11" d="M616.3,571.3c0.1,0,0.1,0,0.2,0l0,0H616.3z"/>
		
			<linearGradient id="SVGID_00000178917692895378382620000016806010509819587987_" gradientUnits="userSpaceOnUse" x1="158.5538" y1="581.65" x2="936.6259" y2="581.65">
			<stop  offset="0" style="stop-color:#A178B5"/>
			<stop  offset="1" style="stop-color:#C186E4;stop-opacity:0"/>
		</linearGradient>
		<path style="fill:url(#SVGID_00000178917692895378382620000016806010509819587987_);" d="M697.6,571.3h-35.1h-12.6h-17.8v19.3v1.4
			h19.8h1.4h44.3c5.7,0,10.3-4.6,10.3-10.3C707.9,575.9,703.3,571.3,697.6,571.3z"/>
		<path class="st11" d="M616.3,591.9h0.2l0,0C616.5,591.9,616.4,591.9,616.3,591.9z"/>
		
			<linearGradient id="SVGID_00000074430998886600133440000006159256879769178752_" gradientUnits="userSpaceOnUse" x1="487.0876" y1="574.35" x2="1022.5832" y2="574.35">
			<stop  offset="0" style="stop-color:#A178B5"/>
			<stop  offset="1" style="stop-color:#C186E4;stop-opacity:0"/>
		</linearGradient>
		<path style="fill:url(#SVGID_00000074430998886600133440000006159256879769178752_);" d="M616.3,571.3h-13.5h-16.2
			c-8.3,0-15.3-6.2-16.3-14.5h-16.9L555,573c0.9,9.3,7.8,16.7,16.7,18.5c1.3,0.3,2.7,0.4,4.1,0.4h21.6h5.5h13.5c0.1,0,0.1,0,0.2,0
			v-1.4v-19.3C616.5,571.3,616.4,571.3,616.3,571.3z"/>
		
			<linearGradient id="SVGID_00000152972551199783947870000015308148834642147208_" gradientUnits="userSpaceOnUse" x1="470.3156" y1="481.5" x2="1011.9848" y2="481.5">
			<stop  offset="0" style="stop-color:#A178B5"/>
			<stop  offset="1" style="stop-color:#C186E4;stop-opacity:0"/>
		</linearGradient>
		<circle style="fill:url(#SVGID_00000152972551199783947870000015308148834642147208_);" cx="584.6" cy="481.5" r="4.3"/>
		
			<linearGradient id="SVGID_00000167364276961556546900000016272416261411095688_" gradientUnits="userSpaceOnUse" x1="470.3156" y1="481.5" x2="1011.9848" y2="481.5">
			<stop  offset="0" style="stop-color:#A178B5"/>
			<stop  offset="1" style="stop-color:#C186E4;stop-opacity:0"/>
		</linearGradient>
		<circle style="fill:url(#SVGID_00000167364276961556546900000016272416261411095688_);" cx="625.3" cy="481.5" r="4.3"/>
		
			<linearGradient id="SVGID_00000152951508361295360450000005074850179184908464_" gradientUnits="userSpaceOnUse" x1="470.3156" y1="509.2" x2="1011.9848" y2="509.2">
			<stop  offset="0" style="stop-color:#A178B5"/>
			<stop  offset="1" style="stop-color:#C186E4;stop-opacity:0"/>
		</linearGradient>
		<circle style="fill:url(#SVGID_00000152951508361295360450000005074850179184908464_);" cx="589.2" cy="509.2" r="4.3"/>
		
			<linearGradient id="SVGID_00000031182257900003681160000005793937372799857833_" gradientUnits="userSpaceOnUse" x1="470.3156" y1="509.2" x2="1011.9848" y2="509.2">
			<stop  offset="0" style="stop-color:#A178B5"/>
			<stop  offset="1" style="stop-color:#C186E4;stop-opacity:0"/>
		</linearGradient>
		<circle style="fill:url(#SVGID_00000031182257900003681160000005793937372799857833_);" cx="629.9" cy="509.2" r="4.3"/>
		
			<linearGradient id="SVGID_00000134251415975252144320000012130590741015454374_" gradientUnits="userSpaceOnUse" x1="479.3" y1="656.0024" x2="479.3" y2="211.0239">
			<stop  offset="0" style="stop-color:#A178B5"/>
			<stop  offset="1" style="stop-color:#C186E4;stop-opacity:0"/>
		</linearGradient>
		<path style="fill:url(#SVGID_00000134251415975252144320000012130590741015454374_);" d="M545.7,536.1v-17.6c0-2,1.6-3.7,3.6-3.9
			l0,0H412.9c-2.1,0-3.9,1.7-3.9,3.9v17.6c0,2.1,1.7,3.9,3.9,3.9h28.8h107.9C547.5,540,545.7,538.2,545.7,536.1z"/>
		<path class="st36" d="M549.6,514.5h-0.3l0,0C549.4,514.6,549.5,514.5,549.6,514.5z"/>
		
			<linearGradient id="SVGID_00000082362003541680253320000017529092282977413782_" gradientUnits="userSpaceOnUse" x1="509.3" y1="626.4048" x2="509.3" y2="187.3454">
			<stop  offset="0" style="stop-color:#A178B5"/>
			<stop  offset="1" style="stop-color:#C186E4;stop-opacity:0"/>
		</linearGradient>
		<path style="fill:url(#SVGID_00000082362003541680253320000017529092282977413782_);" d="M576.9,552.9v-9.1c0-2.1,1.7-3.9,3.9-3.9
			h-12.1h-17h-2.1H441.7c-2.1,0-3.9,1.7-3.9,3.9v9.1c0,2.1,1.7,3.9,3.9,3.9h111.7h16.9h10.5C578.7,556.8,576.9,555.1,576.9,552.9z"
			/>
		
			<linearGradient id="SVGID_00000147185127948975224630000008924245994465621637_" gradientUnits="userSpaceOnUse" x1="738.2001" y1="831.6151" x2="738.2001" y2="334.2289">
			<stop  offset="0" style="stop-color:#A178B5"/>
			<stop  offset="1" style="stop-color:#C186E4;stop-opacity:0"/>
		</linearGradient>
		<path style="fill:url(#SVGID_00000147185127948975224630000008924245994465621637_);" d="M926.9,514.5H790.1H657.2h-12.7h-78.1
			h-16.8c-0.1,0-0.2,0-0.3,0c-2,0.2-3.6,1.8-3.6,3.9V536c0,2.1,1.7,3.9,3.9,3.9h2.1h17h12.1h66.1h12.7h130.5h28.8h76.7h31.2
			c2.1,0,3.9-1.7,3.9-3.9v-17.6C930.7,516.3,929,514.5,926.9,514.5z"/>
		
			<linearGradient id="SVGID_00000141414629093486413860000018204674912826224550_" gradientUnits="userSpaceOnUse" x1="738.202" y1="859.2396" x2="738.202" y2="279.1048">
			<stop  offset="0" style="stop-color:#A178B5"/>
			<stop  offset="1" style="stop-color:#C186E4;stop-opacity:0"/>
		</linearGradient>
		<path style="fill:url(#SVGID_00000141414629093486413860000018204674912826224550_);" d="M895.7,540H819h-28.8H659.6h-12.7h-66.1
			c-2.1,0-3.9,1.7-3.9,3.9v9.1c0,2.1,1.7,3.9,3.9,3.9h35.8h15.5h16.4h12.6h157.8h76.7c2.1,0,3.9-1.7,3.9-3.9v-9.1
			C899.6,541.7,897.8,540,895.7,540z"/>
		<circle class="st40" cx="629.9" cy="509.2" r="4.3"/>
		<circle class="st40" cx="589.2" cy="509.2" r="4.3"/>
		<circle class="st40" cx="625.3" cy="481.5" r="4.3"/>
		<circle class="st40" cx="584.6" cy="481.5" r="4.3"/>
		
			<linearGradient id="SVGID_00000050647575256667260740000000799951398071458964_" gradientUnits="userSpaceOnUse" x1="322.3274" y1="484.6" x2="1040.6068" y2="484.6">
			<stop  offset="0" style="stop-color:#A178B5"/>
			<stop  offset="1" style="stop-color:#C186E4;stop-opacity:0"/>
		</linearGradient>
		<path style="fill:url(#SVGID_00000050647575256667260740000000799951398071458964_);" d="M644,509.4v-1.1c0-1.2,1-2.2,2.2-2.2
			h10.3l-3.4-36.9c-0.8-8.3-7.8-14.6-16.2-14.6H624h-45.3c-9.6,0-17.1,8.3-16.2,17.9l3.9,42.1h78.1h4C646,514.2,644,512,644,509.4z
			 M580.3,481.5c0-2.4,1.9-4.3,4.3-4.3c2.4,0,4.3,1.9,4.3,4.3s-1.9,4.3-4.3,4.3S580.3,483.9,580.3,481.5z M589.2,513.4
			c-2.4,0-4.3-1.9-4.3-4.3s1.9-4.3,4.3-4.3c2.4,0,4.3,1.9,4.3,4.3C593.4,511.5,591.5,513.4,589.2,513.4z M621,481.5
			c0-2.4,1.9-4.3,4.3-4.3c2.4,0,4.3,1.9,4.3,4.3s-1.9,4.3-4.3,4.3S621,483.9,621,481.5z M629.9,513.4c-2.4,0-4.3-1.9-4.3-4.3
			s1.9-4.3,4.3-4.3c2.4,0,4.3,1.9,4.3,4.3C634.2,511.5,632.3,513.4,629.9,513.4z"/>
		
			<linearGradient id="SVGID_00000035518479334883563860000017873834859620719277_" gradientUnits="userSpaceOnUse" x1="322.3274" y1="564.05" x2="1040.6068" y2="564.05">
			<stop  offset="0" style="stop-color:#A178B5"/>
			<stop  offset="1" style="stop-color:#C186E4;stop-opacity:0"/>
		</linearGradient>
		<path style="fill:url(#SVGID_00000035518479334883563860000017873834859620719277_);" d="M570.3,556.8c1,8.2,7.9,14.5,16.3,14.5
			h16.2h13.5h0.2v-14.5h-35.8H570.3z"/>
		
			<linearGradient id="SVGID_00000129885328443281019860000016942017802423572905_" gradientUnits="userSpaceOnUse" x1="322.3274" y1="564.05" x2="1040.6068" y2="564.05">
			<stop  offset="0" style="stop-color:#A178B5"/>
			<stop  offset="1" style="stop-color:#C186E4;stop-opacity:0"/>
		</linearGradient>
		<polygon style="fill:url(#SVGID_00000129885328443281019860000016942017802423572905_);" points="648.5,556.8 632.1,556.8 
			632.1,571.3 649.9,571.3 662.5,571.3 661.1,556.8 		"/>
		
			<linearGradient id="SVGID_00000013173498224046500730000003697979325745161634_" gradientUnits="userSpaceOnUse" x1="395.948" y1="510.3" x2="1285.9456" y2="510.3">
			<stop  offset="0" style="stop-color:#A178B5"/>
			<stop  offset="1" style="stop-color:#C186E4;stop-opacity:0"/>
		</linearGradient>
		<path style="fill:url(#SVGID_00000013173498224046500730000003697979325745161634_);" d="M656.5,506h-10.3c-1.2,0-2.2,1-2.2,2.2
			v1.1c0,2.7,2,4.8,4.5,5.2c0.2,0,0.5,0.1,0.7,0.1h32.7l1.7-8.6L656.5,506L656.5,506z"/>
		
			<linearGradient id="SVGID_00000053541162437745835870000018273788963953671866_" gradientUnits="userSpaceOnUse" x1="177.2989" y1="481.55" x2="1312.9716" y2="481.55">
			<stop  offset="0" style="stop-color:#A178B5"/>
			<stop  offset="1" style="stop-color:#C186E4;stop-opacity:0"/>
		</linearGradient>
		<path style="fill:url(#SVGID_00000053541162437745835870000018273788963953671866_);" d="M772.7,448.5h-68
			c-5.6,0-10.4,3.9-11.5,9.4l-9.6,48.1l-1.7,8.6h84.9h7l10.4-52.1C785.6,455.3,780.1,448.5,772.7,448.5z M733.2,479.1
			c3.3,0,5.9,2.6,5.9,5.9s-2.6,5.9-5.9,5.9c-3.3,0-5.9-2.6-5.9-5.9C727.3,481.8,729.9,479.1,733.2,479.1z"/>
		<path class="st40" d="M667.3,658.3h-35.2v5.8h34.3c-0.2-0.6-0.2-1.2-0.2-1.8C666.2,660.8,666.6,659.4,667.3,658.3z"/>
		<path class="st40" d="M613.2,658.3h-33.3c0.7,1.1,1.2,2.5,1.2,3.9c0,0.6-0.1,1.2-0.2,1.8h31.4c-0.2-0.6-0.2-1.2-0.2-1.8
			C612.1,660.8,612.5,659.4,613.2,658.3z"/>
		<path class="st40" d="M385.2,550.5c-0.3-1.8-1.8-3-3.5-3h-16l2.2,23.8h20.6L385.2,550.5z"/>
		
			<linearGradient id="SVGID_00000078009679811872352000000008014678868569409419_" gradientUnits="userSpaceOnUse" x1="194.6552" y1="554.7" x2="908.9855" y2="554.7">
			<stop  offset="0" style="stop-color:#A178B5"/>
			<stop  offset="1" style="stop-color:#C186E4;stop-opacity:0"/>
		</linearGradient>
		<path style="fill:url(#SVGID_00000078009679811872352000000008014678868569409419_);" d="M393.8,545l3.8,26.2h3.9l-3.8-26.2
			c-0.6-3.9-3.9-6.8-7.8-6.8H386C389.9,538.3,393.2,541.2,393.8,545z"/>
		
			<linearGradient id="SVGID_00000155845630743821491950000003791781278463958676_" gradientUnits="userSpaceOnUse" x1="-51.3464" y1="554.7" x2="729.0388" y2="554.7">
			<stop  offset="0" style="stop-color:#A178B5"/>
			<stop  offset="1" style="stop-color:#C186E4;stop-opacity:0"/>
		</linearGradient>
		<path style="fill:url(#SVGID_00000155845630743821491950000003791781278463958676_);" d="M381.6,547.5c1.8,0,3.3,1.3,3.5,3
			l3.2,20.7h3.9h5.3l-3.8-26.2c-0.6-3.9-3.9-6.8-7.8-6.8h-21.2l0.9,9.2L381.6,547.5L381.6,547.5z"/>
		
			<linearGradient id="SVGID_00000116199431631090181140000013787849846881404301_" gradientUnits="userSpaceOnUse" x1="-224.9946" y1="631.3" x2="799.8063" y2="631.3">
			<stop  offset="0" style="stop-color:#A178B5"/>
			<stop  offset="1" style="stop-color:#C186E4;stop-opacity:0"/>
		</linearGradient>
		<path style="fill:url(#SVGID_00000116199431631090181140000013787849846881404301_);" d="M285.2,658.3h33.3c1.3-2,3.5-3.3,6.1-3.3
			c2.5,0,4.8,1.3,6.1,3.3h42c1.3-2,3.5-3.3,6.1-3.3c2.5,0,4.7,1.3,6,3.2c2.1-0.3,3.6-2.1,3.6-4.2c0-2.4-1.9-4.3-4.3-4.3h-49v-45.4
			h-10.2c-0.1,0-0.2,0-0.2,0v45.4h-43.4c-2.4,0-4.3,1.9-4.3,4.3c0,0.4,0.1,0.9,0.2,1.3c0.6-0.2,1.3-0.3,2-0.3
			C281.7,655,283.9,656.3,285.2,658.3z"/>
		
			<linearGradient id="SVGID_00000168109559919793606020000004873664532510204852_" gradientUnits="userSpaceOnUse" x1="27.5846" y1="662.2" x2="888.2381" y2="662.2">
			<stop  offset="0" style="stop-color:#A178B5"/>
			<stop  offset="1" style="stop-color:#C186E4;stop-opacity:0"/>
		</linearGradient>
		<path style="fill:url(#SVGID_00000168109559919793606020000004873664532510204852_);" d="M285.2,658.3c-1.3-2-3.5-3.3-6.1-3.3
			c-0.7,0-1.4,0.1-2,0.3c-3,0.9-5.2,3.7-5.2,6.9c0,0.6,0.1,1.2,0.2,1.8c0.8,3.1,3.6,5.4,7,5.4s6.2-2.3,7-5.4
			c0.2-0.6,0.2-1.2,0.2-1.8C286.4,660.8,286,659.4,285.2,658.3z"/>
		
			<linearGradient id="SVGID_00000143588597678880336210000003695990998006842025_" gradientUnits="userSpaceOnUse" x1="27.5846" y1="662.2" x2="888.2381" y2="662.2">
			<stop  offset="0" style="stop-color:#A178B5"/>
			<stop  offset="1" style="stop-color:#C186E4;stop-opacity:0"/>
		</linearGradient>
		<path style="fill:url(#SVGID_00000143588597678880336210000003695990998006842025_);" d="M330.6,658.3c-1.3-2-3.5-3.3-6.1-3.3
			c-2.5,0-4.8,1.3-6.1,3.3c-0.7,1.1-1.2,2.5-1.2,3.9c0,0.6,0.1,1.2,0.2,1.8c0.8,3.1,3.6,5.4,7,5.4s6.2-2.3,7-5.4
			c0.2-0.6,0.2-1.2,0.2-1.8C331.8,660.8,331.4,659.4,330.6,658.3z"/>
		
			<linearGradient id="SVGID_00000051353513749059180760000016460168566337378746_" gradientUnits="userSpaceOnUse" x1="27.5846" y1="662.2" x2="888.2381" y2="662.2">
			<stop  offset="0" style="stop-color:#A178B5"/>
			<stop  offset="1" style="stop-color:#C186E4;stop-opacity:0"/>
		</linearGradient>
		<path style="fill:url(#SVGID_00000051353513749059180760000016460168566337378746_);" d="M384.7,658.2c-1.3-1.9-3.5-3.2-6-3.2
			s-4.8,1.3-6.1,3.3c-0.7,1.1-1.2,2.5-1.2,3.9c0,0.6,0.1,1.2,0.2,1.8c0.8,3.1,3.6,5.4,7,5.4s6.2-2.3,7-5.4c0.2-0.6,0.2-1.2,0.2-1.8
			C385.9,660.7,385.5,659.4,384.7,658.2z"/>
		
			<linearGradient id="SVGID_00000111880271752738564820000008346294578576221601_" gradientUnits="userSpaceOnUse" x1="-57.924" y1="602" x2="850.2866" y2="602">
			<stop  offset="0" style="stop-color:#A178B5"/>
			<stop  offset="1" style="stop-color:#C186E4;stop-opacity:0"/>
		</linearGradient>
		<path style="fill:url(#SVGID_00000111880271752738564820000008346294578576221601_);" d="M335.1,604.3h1.3c3.4,0,6.4-1.9,8-4.6
			h-9.2h-10.5H317c1.6,2.7,4.4,4.5,7.7,4.6c0.1,0,0.2,0,0.2,0H335.1z"/>
		
			<linearGradient id="SVGID_00000135690256484372295760000017406994812226218160_" gradientUnits="userSpaceOnUse" x1="56.526" y1="595.8" x2="1036.9036" y2="595.8">
			<stop  offset="0" style="stop-color:#A178B5"/>
			<stop  offset="1" style="stop-color:#C186E4;stop-opacity:0"/>
		</linearGradient>
		<path style="fill:url(#SVGID_00000135690256484372295760000017406994812226218160_);" d="M335.1,599.7h9.2h5.2
			c4.6,0,8.4-3.4,9.1-7.8h-1.4h-22.1h-10.5h-3h-13.5h-5.5c0.7,4.4,4.5,7.8,9.1,7.8h5.2h7.7H335.1z"/>
		
			<linearGradient id="SVGID_00000054945941950701021650000004365963992336243087_" gradientUnits="userSpaceOnUse" x1="2.5898" y1="559.4" x2="869.5162" y2="559.4">
			<stop  offset="0" style="stop-color:#A178B5"/>
			<stop  offset="1" style="stop-color:#C186E4;stop-opacity:0"/>
		</linearGradient>
		<path style="fill:url(#SVGID_00000054945941950701021650000004365963992336243087_);" d="M301,547.5h-26.3l0.8,8.9
			c0.8,8.4,7.8,14.9,16.3,14.9h15.9l-3.2-20.7C304.3,548.8,302.8,547.5,301,547.5z"/>
		
			<linearGradient id="SVGID_00000181772825767062987480000011152851694272380347_" gradientUnits="userSpaceOnUse" x1="2.5898" y1="512.9495" x2="869.5162" y2="512.9495">
			<stop  offset="0" style="stop-color:#A178B5"/>
			<stop  offset="1" style="stop-color:#C186E4;stop-opacity:0"/>
		</linearGradient>
		<path style="fill:url(#SVGID_00000181772825767062987480000011152851694272380347_);" d="M267.8,472.4l6.1,65.9h31.5h3.9
			c3.9,0,7.3,2.9,7.8,6.8l3.8,26.2h0.7h33.6h12.6l-2.2-23.8l-0.9-9.2l-6.4-69.1c-0.8-8.3-7.8-14.6-16.2-14.6h-12.9H284
			C274.4,454.5,266.8,462.8,267.8,472.4z M339.5,509.2c0,2.4-1.9,4.3-4.3,4.3s-4.3-1.9-4.3-4.3s1.9-4.3,4.3-4.3
			C337.5,504.9,339.5,506.8,339.5,509.2z M330.6,477.3c2.4,0,4.3,1.9,4.3,4.3s-1.9,4.3-4.3,4.3s-4.3-1.9-4.3-4.3
			C326.3,479.2,328.2,477.3,330.6,477.3z M298.7,509.2c0,2.4-1.9,4.3-4.3,4.3s-4.3-1.9-4.3-4.3s1.9-4.3,4.3-4.3
			S298.7,506.8,298.7,509.2z M289.8,477.3c2.4,0,4.3,1.9,4.3,4.3s-1.9,4.3-4.3,4.3s-4.3-1.9-4.3-4.3
			C285.6,479.2,287.5,477.3,289.8,477.3z"/>
		<path class="st11" d="M321.6,591.9h3v-0.4C323.6,591.7,322.7,591.9,321.6,591.9z"/>
		
			<linearGradient id="SVGID_00000181060367236032347820000013577939433036372374_" gradientUnits="userSpaceOnUse" x1="-175.005" y1="581.6" x2="646.1819" y2="581.6">
			<stop  offset="0" style="stop-color:#A178B5"/>
			<stop  offset="1" style="stop-color:#C186E4;stop-opacity:0"/>
		</linearGradient>
		<path style="fill:url(#SVGID_00000181060367236032347820000013577939433036372374_);" d="M392.3,571.3h-3.9h-20.6h-12.6h-33.6
			c5.7,0,10.3,4.6,10.3,10.3c0,1.5-0.3,2.8-0.8,4.1c-0.9,2-2.4,3.8-4.3,4.9c-0.7,0.4-1.4,0.7-2.2,0.9v0.4h10.5h22.1h1.4h44.3
			c5.7,0,10.3-4.6,10.3-10.3s-4.6-10.3-10.3-10.3h-1.4h-3.9L392.3,571.3L392.3,571.3z"/>
		
			<linearGradient id="SVGID_00000123409021041544285850000016007776924937701023_" gradientUnits="userSpaceOnUse" x1="197.2862" y1="523.15" x2="931.5483" y2="523.15">
			<stop  offset="0" style="stop-color:#A178B5"/>
			<stop  offset="1" style="stop-color:#C186E4;stop-opacity:0"/>
		</linearGradient>
		<path style="fill:url(#SVGID_00000123409021041544285850000016007776924937701023_);" d="M321.6,591.9c1,0,2-0.2,3-0.4
			c0.8-0.2,1.5-0.5,2.2-0.9c1.9-1.1,3.5-2.8,4.3-4.9c0.5-1.3,0.8-2.6,0.8-4.1c0-5.7-4.6-10.3-10.3-10.3h-0.7l0.4,2.8
			c0.4,2.8-1.7,5.2-4.5,5.2c-0.7,0-1.4-0.2-2-0.4c-0.6,0.3-1.3,0.4-2,0.4c-2.2,0-4.2-1.6-4.5-3.9l-0.2-1.6l-0.4-2.6h-15.9
			c-8.5,0-15.5-6.4-16.3-14.9l-0.8-8.9h-3.2h-3.9c-2.5,0-4.6-2.1-4.6-4.6s2.1-4.6,4.6-4.6h3.9h2.4l-6.1-65.9
			c-1-9.6,6.6-17.9,16.2-17.9h-17.2c-9.6,0-17.1,8.3-16.2,17.8l9.6,100.7c0.9,9.3,7.8,16.7,16.7,18.5v0.4h4.1h21.6h5.5L321.6,591.9
			L321.6,591.9z"/>
		
			<linearGradient id="SVGID_00000180348303841006308040000014144710359176684928_" gradientUnits="userSpaceOnUse" x1="201.2328" y1="481.5" x2="815.5917" y2="481.5">
			<stop  offset="0" style="stop-color:#A178B5"/>
			<stop  offset="1" style="stop-color:#C186E4;stop-opacity:0"/>
		</linearGradient>
		<circle style="fill:url(#SVGID_00000180348303841006308040000014144710359176684928_);" cx="289.8" cy="481.5" r="4.3"/>
		
			<linearGradient id="SVGID_00000018216178720881305860000010024179471735623553_" gradientUnits="userSpaceOnUse" x1="201.2328" y1="481.5" x2="815.5917" y2="481.5">
			<stop  offset="0" style="stop-color:#A178B5"/>
			<stop  offset="1" style="stop-color:#C186E4;stop-opacity:0"/>
		</linearGradient>
		<circle style="fill:url(#SVGID_00000018216178720881305860000010024179471735623553_);" cx="330.6" cy="481.5" r="4.3"/>
		
			<linearGradient id="SVGID_00000119819007771399813760000005329880040132202915_" gradientUnits="userSpaceOnUse" x1="201.2328" y1="509.2" x2="815.5917" y2="509.2">
			<stop  offset="0" style="stop-color:#A178B5"/>
			<stop  offset="1" style="stop-color:#C186E4;stop-opacity:0"/>
		</linearGradient>
		<circle style="fill:url(#SVGID_00000119819007771399813760000005329880040132202915_);" cx="294.4" cy="509.2" r="4.3"/>
		
			<linearGradient id="SVGID_00000160912284340535925470000003546194831437799094_" gradientUnits="userSpaceOnUse" x1="201.2328" y1="509.2" x2="815.5917" y2="509.2">
			<stop  offset="0" style="stop-color:#A178B5"/>
			<stop  offset="1" style="stop-color:#C186E4;stop-opacity:0"/>
		</linearGradient>
		<circle style="fill:url(#SVGID_00000160912284340535925470000003546194831437799094_);" cx="335.2" cy="509.2" r="4.3"/>
		
			<linearGradient id="SVGID_00000180364255752320128580000014065369833945438372_" gradientUnits="userSpaceOnUse" x1="177.5535" y1="558.8" x2="888.0542" y2="558.8">
			<stop  offset="0" style="stop-color:#A178B5"/>
			<stop  offset="1" style="stop-color:#C186E4;stop-opacity:0"/>
		</linearGradient>
		<path style="fill:url(#SVGID_00000180364255752320128580000014065369833945438372_);" d="M309.3,538.3h-3.9c3.9,0,7.3,2.9,7.8,6.8
			l3.8,26.2l0.4,2.8c0.3,2.1-0.8,4-2.5,4.8c0.6,0.3,1.3,0.4,2,0.4c2.8,0,4.9-2.5,4.5-5.2l-0.4-2.8l-3.8-26.2
			C316.5,541.2,313.2,538.3,309.3,538.3z"/>
		<polygon class="st11" points="307.7,571.3 308.1,573.8 308.1,571.3 		"/>
		
			<linearGradient id="SVGID_00000106125827154457360250000009545669779044144574_" gradientUnits="userSpaceOnUse" x1="-138.1705" y1="558.7" x2="727.4124" y2="558.7">
			<stop  offset="0" style="stop-color:#A178B5"/>
			<stop  offset="1" style="stop-color:#C186E4;stop-opacity:0"/>
		</linearGradient>
		<path style="fill:url(#SVGID_00000106125827154457360250000009545669779044144574_);" d="M317.3,574l-0.4-2.8l-3.8-26.2
			c-0.6-3.9-3.9-6.8-7.8-6.8h-31.5h-2.4h-3.9c-2.5,0-4.6,2.1-4.6,4.6s2.1,4.6,4.6,4.6h3.9h3.2H301c1.8,0,3.3,1.3,3.5,3l3.2,20.7h0.4
			v2.6l0.2,1.6c0.3,2.2,2.3,3.9,4.5,3.9c0.7,0,1.4-0.2,2-0.4C316.5,578,317.7,576.1,317.3,574z"/>
		
			<linearGradient id="SVGID_00000078736965253025031930000012240095118690999197_" gradientUnits="userSpaceOnUse" x1="165.4599" y1="613.1" x2="2075.531" y2="613.1">
			<stop  offset="0" style="stop-color:#A178B5"/>
			<stop  offset="1" style="stop-color:#C186E4;stop-opacity:0"/>
		</linearGradient>
		<path style="fill:url(#SVGID_00000078736965253025031930000012240095118690999197_);" d="M847.3,556.8V664v3.9
			c0,0.8,0.7,1.5,1.5,1.5h12.5c0.8,0,1.5-0.7,1.5-1.5V664V556.8H847.3z"/>
		
			<linearGradient id="SVGID_00000047751335204592206850000004184958018053735839_" gradientUnits="userSpaceOnUse" x1="-194.6448" y1="613.1" x2="1305.3014" y2="613.1">
			<stop  offset="0" style="stop-color:#A178B5"/>
			<stop  offset="1" style="stop-color:#C186E4;stop-opacity:0"/>
		</linearGradient>
		<path style="fill:url(#SVGID_00000047751335204592206850000004184958018053735839_);" d="M711.3,556.8V664v3.9
			c0,0.8,0.7,1.5,1.5,1.5h12.5c0.8,0,1.5-0.7,1.5-1.5V664V556.8H711.3z"/>
		
			<linearGradient id="SVGID_00000170257164882644581870000008932510880796489124_" gradientUnits="userSpaceOnUse" x1="-194.6448" y1="613.1" x2="1305.3014" y2="613.1">
			<stop  offset="0" style="stop-color:#A178B5"/>
			<stop  offset="1" style="stop-color:#C186E4;stop-opacity:0"/>
		</linearGradient>
		<path style="fill:url(#SVGID_00000170257164882644581870000008932510880796489124_);" d="M478.4,556.8V664v3.9
			c0,0.8,0.7,1.5,1.5,1.5h12.5c0.8,0,1.5-0.7,1.5-1.5V664V556.8H478.4z"/>
		
			<linearGradient id="SVGID_00000072268313607966959150000007346867910398255518_" gradientUnits="userSpaceOnUse" x1="-657.0081" y1="620.4" x2="497.4203" y2="620.4">
			<stop  offset="0" style="stop-color:#A178B5"/>
			<stop  offset="1" style="stop-color:#C186E4;stop-opacity:0"/>
		</linearGradient>
		<path style="fill:url(#SVGID_00000072268313607966959150000007346867910398255518_);" d="M67.9,571.3v92.8v3.5
			c0,1,0.8,1.9,1.9,1.9h7.8c1,0,1.9-0.8,1.9-1.9v-3.5v-92.8H67.9z"/>
		
			<linearGradient id="SVGID_00000139251792877246419460000016858930733482987941_" gradientUnits="userSpaceOnUse" x1="-657.0081" y1="620.4" x2="497.4203" y2="620.4">
			<stop  offset="0" style="stop-color:#A178B5"/>
			<stop  offset="1" style="stop-color:#C186E4;stop-opacity:0"/>
		</linearGradient>
		<path style="fill:url(#SVGID_00000139251792877246419460000016858930733482987941_);" d="M210.4,571.3H200v92.8v3.5
			c0,1,0.8,1.9,1.9,1.9h7.8c1,0,1.9-0.8,1.9-1.9v-3.5v-92.8H210.4z"/>
		
			<linearGradient id="SVGID_00000125565540434903919340000015625942887904834991_" gradientUnits="userSpaceOnUse" x1="-554.3978" y1="620.4" x2="751.3436" y2="620.4">
			<stop  offset="0" style="stop-color:#A178B5"/>
			<stop  offset="1" style="stop-color:#C186E4;stop-opacity:0"/>
		</linearGradient>
		<path style="fill:url(#SVGID_00000125565540434903919340000015625942887904834991_);" d="M58.9,571.3H48.3h-0.1v92.8v3.5
			c0,1,0.8,1.9,1.9,1.9h7.8c1,0,1.9-0.8,1.9-1.9v-3.5v-92.8H58.9z"/>
		
			<linearGradient id="SVGID_00000123425324475126578550000016534955543046366628_" gradientUnits="userSpaceOnUse" x1="-554.3978" y1="620.4" x2="751.3436" y2="620.4">
			<stop  offset="0" style="stop-color:#A178B5"/>
			<stop  offset="1" style="stop-color:#C186E4;stop-opacity:0"/>
		</linearGradient>
		<path style="fill:url(#SVGID_00000123425324475126578550000016534955543046366628_);" d="M180.3,571.3v92.8v3.5
			c0,1,0.8,1.9,1.9,1.9h7.8c1,0,1.9-0.8,1.9-1.9v-3.5v-92.8H180.3z"/>
		
			<linearGradient id="SVGID_00000178195920177350962130000006233014514318641839_" gradientUnits="userSpaceOnUse" x1="237.4808" y1="654" x2="962.6238" y2="654">
			<stop  offset="0" style="stop-color:#A178B5"/>
			<stop  offset="1" style="stop-color:#C186E4;stop-opacity:0"/>
		</linearGradient>
		<path style="fill:url(#SVGID_00000178195920177350962130000006233014514318641839_);" d="M667.3,658.3c1.3-2,3.5-3.3,6.1-3.3
			c2.5,0,4.7,1.3,6,3.2c2.1-0.3,3.6-2.1,3.6-4.2c0-2.4-1.9-4.3-4.3-4.3H632v8.6H667.3z"/>
		
			<linearGradient id="SVGID_00000134956237329779406100000006360825438161534352_" gradientUnits="userSpaceOnUse" x1="237.4808" y1="654" x2="962.6238" y2="654">
			<stop  offset="0" style="stop-color:#A178B5"/>
			<stop  offset="1" style="stop-color:#C186E4;stop-opacity:0"/>
		</linearGradient>
		<path style="fill:url(#SVGID_00000134956237329779406100000006360825438161534352_);" d="M579.9,658.3h33.3c0.8-1.2,2-2.2,3.3-2.8
			v-5.8h-40.7c-2.4,0-4.3,1.9-4.3,4.3c0,0.4,0.1,0.9,0.2,1.3c0.6-0.2,1.3-0.3,2-0.3C576.4,655,578.6,656.3,579.9,658.3z"/>
		
			<linearGradient id="SVGID_00000120519811763076624830000000164617192735604393_" gradientUnits="userSpaceOnUse" x1="425.9191" y1="662.2" x2="1028.1292" y2="662.2">
			<stop  offset="0" style="stop-color:#A178B5"/>
			<stop  offset="1" style="stop-color:#C186E4;stop-opacity:0"/>
		</linearGradient>
		<path style="fill:url(#SVGID_00000120519811763076624830000000164617192735604393_);" d="M579.9,658.3c-1.3-2-3.5-3.3-6.1-3.3
			c-0.7,0-1.4,0.1-2,0.3c-3,0.9-5.2,3.7-5.2,6.9c0,0.6,0.1,1.2,0.2,1.8c0.8,3.1,3.6,5.4,7,5.4s6.2-2.3,7-5.4
			c0.2-0.6,0.2-1.2,0.2-1.8C581.1,660.8,580.7,659.4,579.9,658.3z"/>
		
			<linearGradient id="SVGID_00000013194941407788423860000014151165283553538474_" gradientUnits="userSpaceOnUse" x1="402.2006" y1="662.3" x2="1081.1467" y2="662.3">
			<stop  offset="0" style="stop-color:#A178B5"/>
			<stop  offset="1" style="stop-color:#C186E4;stop-opacity:0"/>
		</linearGradient>
		<path style="fill:url(#SVGID_00000013194941407788423860000014151165283553538474_);" d="M616.6,668v-3.9v-5.8v-2.8
			c-1.4,0.6-2.5,1.5-3.3,2.8c-0.7,1.1-1.2,2.5-1.2,3.9c0,0.6,0.1,1.2,0.2,1.8c0.6,2.4,2.5,4.3,4.8,5.1
			C616.8,668.9,616.6,668.4,616.6,668z"/>
		
			<linearGradient id="SVGID_00000087391110935134986000000012616425357653729961_" gradientUnits="userSpaceOnUse" x1="425.9191" y1="662.2" x2="1028.1292" y2="662.2">
			<stop  offset="0" style="stop-color:#A178B5"/>
			<stop  offset="1" style="stop-color:#C186E4;stop-opacity:0"/>
		</linearGradient>
		<path style="fill:url(#SVGID_00000087391110935134986000000012616425357653729961_);" d="M679.4,658.2c-1.3-1.9-3.5-3.2-6-3.2
			s-4.8,1.3-6.1,3.3c-0.7,1.1-1.2,2.5-1.2,3.9c0,0.6,0.1,1.2,0.2,1.8c0.8,3.1,3.6,5.4,7,5.4s6.2-2.3,7-5.4c0.2-0.6,0.2-1.2,0.2-1.8
			C680.6,660.7,680.2,659.4,679.4,658.2z"/>
		
			<linearGradient id="SVGID_00000140012328102095750690000002424209293191081146_" gradientUnits="userSpaceOnUse" x1="165.4599" y1="613.2" x2="2075.531" y2="613.2">
			<stop  offset="0" style="stop-color:#A178B5"/>
			<stop  offset="0.4055" style="stop-color:#AE7EC8;stop-opacity:0.5945"/>
			<stop  offset="1" style="stop-color:#C186E4;stop-opacity:0"/>
		</linearGradient>
		<path style="fill:url(#SVGID_00000140012328102095750690000002424209293191081146_);" d="M616.6,556.8v14.5l0,0v19.3v1.4l0,0v3.2
			v4.6v4.1v45.9v5.8v2.8v5.8v3.9c0,0.5,0.2,0.9,0.6,1.2c0.3,0.2,0.6,0.3,0.9,0.3h1.2h11.3c0.8,0,1.5-0.7,1.5-1.5v-3.9v-5.8v-8.6
			v-45.5v-4.5v-4.6V592v-1.4v-19.3v-14.5H616.6z"/>
	</g>
</g>
<g>
	<g>
		<ellipse class="st77" cx="446.9" cy="763.5" rx="77.4" ry="17"/>
		<path class="st78" d="M449,477.8c5.3-24.1,12.2-44.9,22.9-101.4c3-16.2-7.4-31.7-23.5-35.1c-17.5-3.7-34.2,8.4-36.3,26.1
			c-3.3,28.9-3.4,58.7-7.2,93.1c-2.5,22.9-4.3,43.1-4.6,56.6c-0.1,4.6-0.1,8.4,0.1,11.2c3.2,35.5,18.9,185.3,19,191.3
			c0.1,6.2-1.2,10.9-5,12.8c-0.6,0.3,0.3,0.5-0.2,0.8c-4.5,2.5-9.1,5-13.7,7.2c-2.4,1.2-4.6,2.4-7.1,3.4c-1.5,0.8-4.5,1.3-5.1,2.9
			c-0.4,0.9-0.1,2.1,0.4,3c1.2,1.8,2.8,2.2,4.6,2.2c10.8-0.1,24.2-0.8,34.9-1.3c2-0.1,6.8-0.4,7.6-2.5c0.4-1.1,0.3-2.2,0.1-3.3
			c-0.3-2.5-0.3-5.3-0.3-7.9c0-0.9-0.9-9.2,1.2-25.1c2.1-15.9,13.1-78.9,13.8-109.3c0.3-10.5,0-19-0.6-26.1
			c-1.1-12.5-3.3-20.1-5.4-26.1c-4.1-11-8-16.3-4.2-36.6C440.9,511.9,448.6,479.9,449,477.8L449,477.8z"/>
		<path class="st78" d="M485.5,710.6c0,0,2.3,18.2,0.1,26.6s23,2.8,21.8-5.1c-1.2-7.9-3.3-10.5-2.2-18.8c1.2-8.3-0.1-8.7-0.1-8.7
			L485.5,710.6z"/>
		<path class="st79" d="M436.7,735.5c0,2.9,0,5.8,0.3,8.6c0.1,1.2,0.3,2.5-0.3,3.7c-1.1,2.4-6.2,2.8-8.4,2.9
			c-11.4,0.6-26.3,1.3-38.3,1.5c-2.2,0-3.8-0.4-5.3-2.4c-0.6-0.9-1.1-2.2-0.6-3.3c0.8-1.8,4.1-2.4,5.8-3.2c2.5-1.2,5.3-2.5,7.9-3.8
			c5.1-2.5,10.1-5.3,15.1-8c0.6-0.4,1.3-0.8,2-1.3c1.5-1.7,1.3-4.2,1.1-6.5c-0.1-2-0.4-3.8-0.6-5.8c0-0.4-0.1-0.8,0-1.2
			c0.3-0.6,1.2-0.9,1.8-0.8c0.6,0.1,1.2,0.8,1.8,1.3c1.3,1.5,2.4,3.4,2.9,5.4c-0.3-1.7-0.4-3.9,1.1-4.9c0.6-0.3,1.3-0.4,2-0.4
			c2.5-0.1,5.1,0,7.6,0.3c0.9,0.1,1.8,0.3,2.8,0.8c3.4,2,2.2,7.1,2,10.1C436.8,731,436.7,733.2,436.7,735.5L436.7,735.5z"/>
		<path class="st80" d="M384.7,753.3c-1.7,0-2.9-1.3-2.9-2.9c0-1.7,1.3-3,2.9-3c13.4-0.1,50.5-2.1,50.8-2.2c1.7-0.1,3,1.2,3.2,2.8
			c0.1,1.7-1.2,3-2.8,3.2C435.5,751,398.4,753.1,384.7,753.3L384.7,753.3z"/>
		<path class="st79" d="M509.5,735.2c0.1,3.2,0.8,6.3,2.4,9.3c0.1,0.3,0.4,0.8,0.4,1.1c0.1,2.5-3.3,4.3-5,5.5
			c-2.5,1.7-5.3,3.4-8.4,4.2c-6,1.5-13,0.8-19.2,0.1c-1.7-0.1-3.4-0.4-5-1.2c-1.5-0.8-2.9-2.2-3-3.9c-0.4-4.2,5.4-6.6,8.2-8.7
			c2.9-2.2,6.6-5.1,8.3-8.6c1.5-3.2,0.4-7.5,0.8-10.8c0-0.8,0.1-1.7,0.8-2.1c0.7-0.4,1.8-0.1,1.7,0.6c-0.4-0.6-0.1-1.5,0.4-2.1
			c0.6-0.4,1.3-0.8,2.1-0.9c2.2-0.6,4.6-0.9,6.8,0c2.1,0.9,3.8,3.3,2.9,5.4c0.4-0.9,1.1-2,2-2.5s2.1-0.9,3-0.3
			c1.1,0.8,1.2,2.1,1.2,3.4C509.8,727.8,509.3,731.6,509.5,735.2L509.5,735.2z"/>
		<g>
			<path class="st2" d="M377.8,754.8c0,0-1.3,4,0,6.1c1.3,2,13,2.7,19.3,0.8c6.4-2,17.6-3.2,24.2-2.6c14.8,0.3,16.7-2.4,18.7-4.4
				c2-2.1,2-3.9,0.9-6.3L377.8,754.8z"/>
			<path class="st36" d="M427.1,733.1c-2.1,0.4-10.7,0.1-13.6-1.8c-2.9,4.9-12.1,8.4-17.8,11.2c-5.8,2.9-18.6,6-18.6,12.5
				c0.1,3.9,6.5,4.4,15.6,3.7c9.1-0.8,24.6-3.9,33-4.1c8.5-0.2,14.7-2.3,15.1-7.4c0.6-6.7-1.6-12.4-4.8-16.9
				C435.1,730.7,433.1,732.1,427.1,733.1z"/>
			<path class="st81" d="M418.5,732.8c-2-0.3-3.9-0.8-4.9-1.5c-2.9,4.9-12.1,8.4-17.8,11.2c-1.6,0.8-3.7,1.6-6,2.5
				c0.3,0.9,1.4,2,4.6,2.2c2.8,0.1,9.1-2.4,12.4-4.4C411.9,739.8,416,736.1,418.5,732.8z"/>
			<g>
				<path class="st81" d="M430.7,751.6c-0.2,0-0.4-0.1-0.5-0.3c0-0.1-1.2-2.8-1-8.3c0-5.5,2.2-9.8,2.3-10c0.1-0.3,0.5-0.4,0.7-0.2
					c0.3,0.1,0.4,0.5,0.2,0.7c0,0-2.2,4.3-2.2,9.5c-0.1,5.2,0.9,7.8,1,7.9c0.1,0.3,0,0.6-0.3,0.7
					C430.9,751.6,430.8,751.6,430.7,751.6z"/>
			</g>
		</g>
		<path class="st36" d="M413.6,731.3c0,0,1-3.1,3.9-3.1s1,4.6,1,4.6S414.9,733,413.6,731.3z"/>
		<path class="st82" d="M448.9,478.4c5.3-24.1,12.2-44.9,22.9-101.4c0.8-3.7,0.8-7.2,0.1-10.7l-19.6,8.7
			c-16.4,11-21.3,149.7-16.4,162.6c4.9,13,13.7,38.1,14.6,61.2c0,1.2,0.1,2.4,0.1,3.7c0.3-10.3,0-18.5-0.6-25.4
			c-1.1-12.5-3.3-20.1-5.4-26.1c-4.1-11-8-16.3-4.2-36.6C440.7,512.5,448.5,480.5,448.9,478.4L448.9,478.4z"/>
		<g>
			<path class="st2" d="M495.5,753.6c0,0,8.9-17.6,13.1-8.4c2.3,5.2,0.5,21.9-7.2,28.4c-7,6-22.5,5.5-26,2.9
				c-4.9-3.8-3.8-10.4-2-15.6L495.5,753.6z"/>
			<path class="st36" d="M494.3,737.2c-9.7,1.4-7.5-7.7-8.1-3.5c-0.8,5.9-6,12-10.8,21.4c-5.1,9.9-0.8,15.3,3.2,16.1
				c6.5,1.4,13.3,2,21.4-2.3c6.1-3.3,8-7.1,9-12.5c1.2-6.5,1.1-13.9-0.1-20.4c-1.5-8-2.5-9.5-2.5-9.5S502.3,736,494.3,737.2z"/>
			<path class="st36" d="M487.8,740.7c0,0,0.5-2,0.7-5.7c0-0.9,0.3-1.8,0.8-2.5c1.7-2.4,5.1-2.5,7.2-1.2c2.6,1.7,1.5,9.6,1.5,9.6
				L487.8,740.7z"/>
			<path class="st81" d="M488.4,736.3c0,5.3-5.8,13.5-5.3,15.2c0.4,1.9,8,3.7,12.1-0.3c3.4-3.4,3.3-12.6,3.2-15.3
				c-1.3,0.6-2.7,1.1-4.2,1.3C491.6,737.5,489.8,737.1,488.4,736.3z"/>
		</g>
		<path class="st36" d="M480.6,400.4c4.9-19.2,8.6-38.7,10.3-58.5H414c-1.3,5.5-2.4,11.3-3.3,17c-4.9,29.3-6.8,52.3-9.3,81.8
			c-2.1,23.5-2.5,53.7-2.1,77.2c0.4,29.2,3,58.2,6,87.2c0.9,8.3,10.4,95,10.8,100s20.5,7.6,27.2,1.6c1.5-9.6,8.4-69.5,10.6-84.2
			c3.9-25.9,3-51.6-5.5-76.7c-1.7-5-3.8-10-4.5-15.3c-0.9-7,0.6-13.8,2.2-20.7C454.3,472.8,471.2,437.4,480.6,400.4L480.6,400.4z"/>
		<path class="st83" d="M481.6,400.8c1.7-7.9,0.3-13.4-5.8-19c-5-4.5-11.7-7.1-18.5-6.3c-10.4,1.3-19.3,10.5-20,21.1
			c-0.4,5.8,1.2,11.3,1.5,17c0.1,3.8-0.3,7.5-1.5,11.3c-1.3,4.3-3.7,8.7-3.8,13.3c-0.3,8,5.5,14.6,8.4,22
			c4.2,10.7,0.4,22.8-2.8,33.3c-3.3,10.8-7.4,21.6-9.1,32.9c-2.2,15.9,3.8,30.1,8.7,45.1c5.1,15.3,10.3,30.3,12.1,46.3
			c0.6,5.9,0.9,11.6,0.9,17.5c0.6-4.2,1.2-8.4,1.8-12.5c3.9-25.9,3-51.6-5.5-76.7c-1.7-5-3.8-10-4.5-15.3c-0.9-7,0.6-13.8,2.2-20.7
			c8.2-35.8,23.5-69.1,34.3-103.8C480.7,404.2,481.3,402.6,481.6,400.8L481.6,400.8z"/>
		<path class="st36" d="M504.9,519.7c1.5-32.9,4.9-65.4,6.2-98.3c0.9-19.9,1.8-40-0.1-59.9c-0.4-4.9-0.9-12.1-2-19.5h-60.3
			c-0.9,12-1.3,23.9-1.2,36c0.1,13.3,1.8,26.6,1.8,39.6c0.1,27.9,2.1,56.3,5.1,84.1c5.4,51.4,28.1,197,28.5,211.3
			c17.8,10.3,26.8-4.3,26.8-4.3c-2-18.5,3.3-52.7,3.8-78.4c0.4-21.1,1.3-41-2-62.2C509.1,552.1,504.3,535.8,504.9,519.7L504.9,519.7
			z"/>
		<path class="st83" d="M504.9,519.7c1.5-32.9,4.9-65.4,6.2-98.3c0.9-19.9,1.8-40-0.1-59.9c-0.6-5.9-0.4-13.1-1.7-19.5h-95
			c-0.4,2.1-1.1,4.3-1.5,6.5c1.1,0.8,2.1,1.3,3.3,1.8c11,5,23.4,5,35.1,7.5s23,7.6,32.7,14.9c1.8,1.3,3.4,2.8,5.1,4.2
			c8,7.2,13.4,15.9,14.9,27.2c1.8,13.6,0.4,27.5-1.5,41c-2,13.6-5.5,26.8-7.2,40.5c-2.5,22,0.6,44.1,5.5,65.4
			c4.2,18.7,13.3,39.6,13.1,59.2c0.1-14.1-0.1-28-2.2-42.5C509.1,552.1,504.3,535.8,504.9,519.7L504.9,519.7z"/>
		<path class="st84" d="M439.1,198.5c2.2-5,4.1-11.7,0.4-16.5c-5.2-6.8-17.4-4.4-23.7-0.7c-6.6,4-11.2,11-13.9,18
			c-3,7.7-6,15.4-9,22.9c-0.3,1.1-4.1,10.4-5.3,13.4c-0.2,0.6-0.1,1.3,0.4,1.8c2.5,2.5,12.1,10.3,30.3,10.3
			C424.8,234.9,433.2,211.9,439.1,198.5L439.1,198.5z"/>
		<path class="st82" d="M504,264.9c0-9.2,0.3-18.3,1.1-27.5l-17-43.5c-11.2,18,7.1,64.2,6.3,92.2c-1.3,46.2,8,47.9,13.6,52
			C504.4,317.9,504.3,288.6,504,264.9L504,264.9z"/>
		<path class="st84" d="M506.9,264.9c0-9.3,0.3-18.7,1.1-28c0.9-11.4,7-23.2,5.8-34.7c-1.2-10.8-1.7-16.6-12.5-21.5
			s-30.3-10.6-41.2-9.8c-16.6,1.1-40.8,4-42.8,14.8c-2.1,7.6-3,24.9-2.4,32.9c2.9,36.8-0.1,73.7-3.4,110.1
			c-0.9,10.8-7.4,43.1-5.8,43.5c11.7,3,40.8,6.8,52.9,6.3c36.2-1.1,53.8-9.1,58.7-10.3C511.9,348.4,506.9,292.2,506.9,264.9
			L506.9,264.9z"/>
		<path class="st85" d="M506.9,264.9c0-9.3,0.3-18.7,1.1-28v-0.4c0.6-6,3.7-12.1,6.2-17.9c2.4-7.9-8.7-23.9-17.9-27
			c-11.6-3.8-12.1,1.1-14.2,11.5c-3.9,19.3,2.2,47.5,0.3,66.6c-0.9,9.1-14.4,25.4-2,33.7c14.5,9.9,23.9,13.1,27.6,37.8
			c1.7,11,3.3,26.4,6.2,28.1c2.2-0.3,3.2-0.9,3.2-0.9S506.9,290.7,506.9,264.9L506.9,264.9z"/>
		<path class="st78" d="M504.6,304.3c-7.1-4-7.5-13.1-8.5-20.3c0-1-0.2-1.8-0.3-2.6c-1.5-14.4-3.2-28.7-5.5-43.1
			c-1-6-2.6-12.2-3.1-18.5c-0.5-4.7-0.2-10.4,4-13.2c4.2-2.9,9.3-4.6,14.2-0.9c9.7,7.6,11.4,18.5,13,31.7
			c1.7,13.5,2.6,31.2,2.5,46.2c-0.1,4.8,0.6,12.9-2.3,17.4C515.6,305.6,508.8,307.1,504.6,304.3z"/>
		<path class="st86" d="M504.4,253.5c-4.6-0.5-7.8,2-10.9,5.4c-0.4-3.4-0.9-6.7-1.3-10.1c-1.5-11.6-4.3-23-4.6-34.7
			c-0.2-0.8-0.3-1.5,0-2c0.8-2.1,1.5-4.5,3.5-5.7c4.3-2.6,9.3-4.4,14.3-0.8c9.7,7.3,11.2,19.3,13,31.7c0.8,5.9,1.5,13.2,1.9,21.3
			c0.5,6.6,0.5,19,0.2,26.5C518.9,272,519.3,255.4,504.4,253.5z"/>
		<path class="st78" d="M486,300.9c-21.6-8-33.4-13.3-53-22c-1.2-0.4-2.3-0.8-3.3-1.5c-1.5-1-2.4-2.9-2.3-4.6
			c0.1-1.9-7.7-9.4-6-10.2c1.3-0.4,12.1,5.2,13.3,5.4c16.6,3.3,22.9,4.5,43.6,6.9c8.4,1.1,20.5,2,26.6,4.1c8.7,3,12.3,5.4,15.1,14.4
			c1.4,5.1-2.3,10.2-6.2,12.1c-0.7,0.2-1.4,0.6-2.3,0.7C505.2,307.3,492.2,303.4,486,300.9z"/>
		<path class="st84" d="M517.6,198.3c-0.6-3.5-4.7-13.8-16-17c-11-2.5-21.8,8.5-19.6,25.2c1.8,14.1,2.4,20.9,4.6,35.6
			c0.2,0.6,0.7,1.4,1.3,1.5c9.8,1.7,20.5,1.1,31.3-2.1c0.9-0.3,2.2-0.7,3.1-1c0.8-0.3,1.3-1,1.1-1.8
			C521.3,220.2,519.6,208.9,517.6,198.3z"/>
		<path class="st85" d="M517.6,198.3c-0.3-1.4-1.1-4-2.8-6.8c2.1,17.1,0,34.7,3.7,50.1c0.3-0.1,0.5-0.1,0.8-0.2
			c0.9-0.3,2.2-0.7,3.1-1c0.8-0.3,1.3-1,1.1-1.8C521.3,220.2,519.6,208.9,517.6,198.3z"/>
		<path class="st78" d="M434.4,84c13.7-5.8,32-1.1,38.1,17.8c2.1,6.6,2.2,13.6,1.2,20.4c-0.8,5.1-2.8,10.3-5,14.7
			c-2.2,4.9-3.2,8.9-2.9,14.5c0.4,5.9,1.1,12.3,3,18c0.7,2.2,0.5,4.7-0.8,6.6c-6.5,10.1-18.7,19.6-23.6,23.5
			c-1.1,0.9-2.8,0.3-3.1-1.1c-1.6-6.4-2-16.7-1.1-25.2c1.5-2.2,2.1-7.1,1.7-11.3c-0.4-4.3-0.8-7.6-3.2-8.6c-1.3-0.6-3.2,0.3-4.6,0.3
			c-3.4,0.1-7.5,0-10.4-2.2c-3-2.4-2.5-14.6-3.7-18.3c-0.9-3.2-3.7-1.1-5.8-2.4c-3-1.7,0.8-4.6,2.8-13
			C421.1,102.2,413.8,92.4,434.4,84L434.4,84z"/>
		<path class="st86" d="M444.7,148.9c-2.4,1.8-5,3.4-10.4,4.5c1.5,0,3.2-0.9,4.6-0.3c2.4,0.9,2.8,4.2,3.2,8.6c0.3,2.8,0.1,5.5-0.4,8
			c2.2-2.1,5.1-6.6,5.8-10.8C448.1,152.4,447.2,146.8,444.7,148.9L444.7,148.9z"/>
	</g>
	<g>
		<path class="st36" d="M435.3,286.5l-33.5-70.6c-0.4-0.8-1.1-1.3-2-1.3H293.5c-1.7,0-2.8,1.7-2,3.2l33.5,70.6
			c0.4,0.7,1.1,1.3,2,1.3h106.3C434.8,289.7,436,288.1,435.3,286.5z"/>
		<path class="st87" d="M438.1,286.5l-33.5-70.6c-0.4-0.8-1.1-1.3-2-1.3h-2.7c-1.7,0-2.8,1.7-2,3.2l33.5,70.6c0.4,0.7,1.1,1.3,2,1.3
			h2.7C437.7,289.7,438.8,288.1,438.1,286.5z M351.4,255.3c-1.3-2.8-1.3-5.4,0-7.3c1.1-1.9,3-2.8,5.6-2.8c5.2,0,11.2,4.1,13.5,9.3
			c1.3,2.8,1.3,5.4,0,7.3c-1.1,1.9-3,2.8-5.6,2.8C359.7,264.6,353.7,260.6,351.4,255.3z M356.9,247.6c-1.7,0-3.1,0.4-3.9,1.7
			s-0.8,3.1,0.2,5.3c2,4.4,7.2,8,11.6,8c1.7,0,3.1-0.4,3.9-1.7c0.8-1.2,0.8-3.1-0.2-5.3C366.4,251,361.2,247.6,356.9,247.6z"/>
		<path class="st87" d="M497.3,286v0.3c0,1.8-1.4,3.3-3.3,3.3h-58.5c-1.8,0-3.3-1.4-3.3-3.3V286c0-1.8,1.4-3.3,3.3-3.3H494
			C496,282.8,497.5,284.2,497.3,286z"/>
	</g>
	<path class="st78" d="M345.6,278.6c0.3-1.2,0.9-2.4,1.4-3.5c0.3-1,0.4-2-0.1-3c-0.6-1.1-2.2-0.7-2.9,0.3c-0.8,1.3-0.9,2-1.8,3.3
		c-0.6,1-1.4,2.1-1.7,3.1c-0.1,0.7,0,1.4,0,2.2c0.2,2.1,0.4,4.1,0.8,6.3c0.2,1.7,0,4.5,1.4,5.3c1,0.4,2.3,0.4,3.2,1.2
		c1.5,1,2.1,2,4.2,1.7c1.1,0,2.2-0.2,3.3,0.1c1,0.3,1.8,0.8,2.7,0.9c1.5,0.2,2.9-1.1,4.3-1.4c1.2-0.3,2.4-0.3,3.5-1s2.1-1.1,3.3-1.8
		c1-0.6,2.9-1.7,2.3-3s-2.3-1.9-3.7-2c-0.9-0.1-1.5,0.4-2.2,1c-0.3,0.3-0.6,1-1.1,0.8c-0.6-0.2-1.1-2.1-1.3-2.7
		c-0.4-1-0.7-1.9-1.1-2.8c-0.3-0.6-0.7-1.2-0.6-1.8c0.1-0.4,0-0.9,0.2-1.3c0.4-1,0.8-2,0.8-3c0-0.9-0.4-2-1.3-2.5
		c-0.2-0.1-0.3-0.2-0.4-0.1c-0.4,0-0.7,0.4-0.8,0.8c-0.3,1-0.8,2-1.1,3c-0.2,0.7-0.6,1.3-0.7,2c0,0.8-0.1,1.5-0.1,2.3
		c0,2.4,0.3,3.4-0.1,5.9c-0.6-1.7-1.2-1.9-1.7-3.4c-0.4-1.3-0.9-2.7-0.8-4.1c0-0.9,0.4-1.7,0.8-2.4c0.8-1.7,1.3-3.4,0.9-5.3
		c-0.1-0.2-0.2-0.6-0.3-0.8c-0.3-0.3-1-0.8-1.5-0.6c-0.6,0.2-0.6,1-1,1.2c-0.1-0.4-0.2-1-0.6-1.3c-0.2-0.2-0.3-0.4-0.8-0.6
		c-0.2-0.1-0.7-0.1-0.8,0.2c-0.1,0-0.2,0.3-0.2,0.4c-1.9,5-4.6,10.4-3.5,16.3c-0.2-1.7-0.6-3.1-0.9-4.6
		C345.8,281.9,345.1,280.2,345.6,278.6z"/>
	<path class="st83" d="M464.4,76.4c-8-3.7-17.3-4.2-25.9-2.6c-4.8,0.9-9.6,2.5-14.3,2c-1-0.1-1.7,0.9-1.3,1.8l0.9,2
		c0.4,0.8-0.2,1.8-1.1,1.8c-3.8,0.2-7.7-0.8-10.9-2.8c-1-0.6-2.2,0.2-2,1.3c0.5,2.7,1.7,5.2,3.4,7.3c0.7,0.9,0,2.2-1.2,2.1
		c-1.3-0.1-2.7-0.5-3.9-1.1c-1-0.5-2.2,0.5-1.8,1.6c1.7,5,6.2,9.1,11.4,10.3c14.7,3.5,20.4-10.7,29.6-3.6c1.6,1.2,1.7,3.8,0.6,5.5
		c-1.1,2-2.9,2.8-4.1,4.2c-1.7,2.1-0.4,4.5,0.4,6.6c1.5,3.7,0.9,6.8,0.8,10.5c0,2.1,2,2.1,3.7,2c1.3-0.1,2-1.7,2.2-2.9
		c0.4-2.9,0.4-6.6,3-8.4c1.8-1.3,4.3-1.5,6.2-0.3c1.3,0.9,2.2,2.2,2.7,3.7c0,0.1,0,0.1,0.1,0.2c0.7,2.7,0.1,5.7-0.9,8.2
		c-1.1,2.5-3.9,5.3-3,8.3c0.2,0.8,0.8,1.4,1.4,1.8c1,0.6,1.8,1.4,1.7,2.7c0,0.1,0,0.2,0,0.3c0.1,1.8,1.3,3.2,3.3,3
		c0.8-0.1,1.5-0.4,2.1-1c0.5-0.4,1.2-0.4,1.8,0.1c0.1,0.1,0.1,0.1,0.2,0.1c0.9,0.8,2.2,0.8,3.3,0.1c1.1-0.6,1.7-1.7,2-2.9
		c0.4-1.1,0.6-2.2,0.9-3.4c1.4-5.5,5-9,6.7-22.4C484.2,99.2,481,84.1,464.4,76.4z"/>
	<path class="st83" d="M436.5,138.3c2.4,0.7-5,3-9.6,1.8c-1.9-0.5-3.6-1.6-5.1-3c-0.3,0.8-0.7,1.6-1,2.4c0-0.1-0.4-0.8-0.5-0.9
		c-0.2-0.4-0.3-0.7-0.4-1.1c-0.2-0.7-0.2-1.4,0-2.1c0.3-0.9,0.7-1.7,1.5-2.1c2.1-1,4.8,0,6.7,1C429.5,135,431.3,136.8,436.5,138.3z"
		/>
	<g>
		<path class="st88" d="M455.3,372.1c-24.8,0-46-6-46.3-6l0.2-0.8c0.3,0.1,25.7,7.2,53.4,5.8c33.8-1.7,49.1-10.9,49.2-11l0.5,0.7
			c-0.2,0.1-15.6,9.4-49.7,11.1C460.2,372.1,457.7,372.1,455.3,372.1z"/>
	</g>
	<g>
		<path class="st88" d="M455.3,366.3c-24.8,0-46-6-46.3-6l0.2-0.8c0.3,0.1,25.7,7.2,53.4,5.8c33.8-1.7,49.1-10.9,49.2-11l0.5,0.7
			c-0.2,0.1-15.6,9.4-49.7,11.1C460.2,366.3,457.7,366.3,455.3,366.3z"/>
	</g>
</g>
<path class="st89" d="M284.6,346.4l-4,3.3c-0.6,0.5-1.4,0.5-2.1,0.1c-1.1-0.8-2.3-1.4-3.5-1.9c-0.7-0.3-1.2-1.1-1.1-1.9l0.5-5.1
	c0.1-1-0.6-1.8-1.6-1.9l-4.6-0.5c-1-0.1-1.8,0.6-1.9,1.6l-0.5,5.1c-0.1,0.8-0.7,1.4-1.5,1.6c-1.3,0.2-2.6,0.6-3.8,1.1
	c-0.7,0.3-1.5,0.1-2-0.5l-3.3-4c-0.6-0.8-1.7-0.9-2.5-0.3l-3.6,2.9c-0.8,0.6-0.9,1.7-0.3,2.5l3.3,4c0.5,0.6,0.5,1.4,0.1,2.1
	c-0.8,1.1-1.4,2.3-1.9,3.5c-0.3,0.7-1.1,1.2-1.9,1.1l-5.1-0.5c-1-0.1-1.8,0.6-1.9,1.6l-0.5,4.6c-0.1,1,0.6,1.8,1.6,1.9l5.1,0.5
	c0.8,0.1,1.4,0.7,1.6,1.5c0.2,1.3,0.6,2.6,1.1,3.8c0.3,0.7,0.1,1.5-0.5,2l-4,3.3c-0.8,0.6-0.9,1.7-0.3,2.5l2.9,3.6
	c0.6,0.8,1.7,0.9,2.5,0.3l4-3.3c0.6-0.5,1.4-0.5,2.1-0.1c1.1,0.8,2.3,1.4,3.5,1.9c0.7,0.3,1.2,1.1,1.1,1.9l-0.5,5.1
	c-0.1,1,0.6,1.8,1.6,1.9l4.6,0.5c1,0.1,1.8-0.6,1.9-1.6l0.5-5.1c0.1-0.8,0.7-1.4,1.5-1.6c1.3-0.2,2.6-0.6,3.8-1.1
	c0.7-0.3,1.5-0.1,2,0.5l3.3,4c0.6,0.8,1.7,0.9,2.5,0.3l3.6-2.9c0.8-0.6,0.9-1.7,0.3-2.5l-3.3-4c-0.5-0.6-0.5-1.4-0.1-2.1
	c0.8-1.1,1.4-2.3,1.9-3.5c0.3-0.7,1.1-1.2,1.9-1.1l5.1,0.5c1,0.1,1.8-0.6,1.9-1.6l0.5-4.6c0.1-1-0.6-1.8-1.6-1.9l-5.1-0.5
	c-0.8-0.1-1.4-0.7-1.6-1.5c-0.2-1.3-0.6-2.6-1.1-3.8c-0.3-0.7-0.1-1.5,0.5-2l4-3.3c0.8-0.6,0.9-1.7,0.3-2.5l-2.9-3.6
	C286.5,345.9,285.4,345.8,284.6,346.4z M271.3,369.4c-2.3,1.9-5.8,1.5-7.7-0.8s-1.5-5.8,0.8-7.7c2.3-1.9,5.8-1.5,7.7,0.8
	C274,364.1,273.7,367.5,271.3,369.4z"/>
<g>
	<ellipse class="st88" cx="223.9" cy="195.5" rx="23.6" ry="23.6"/>
	<g>
		<path class="st84" d="M213.5,195.3c0-5.6,4.5-10.2,10-10.3l-2.2,2.2c-0.5,0.5-0.5,1.4,0,1.9c0.3,0.3,0.6,0.4,1,0.4s0.7-0.1,1-0.4
			l4.5-4.5c0.5-0.5,0.5-1.4,0-1.9l-4.5-4.5c-0.5-0.5-1.4-0.5-1.9,0s-0.5,1.4,0,1.9l2.2,2.2c-7.1,0.1-12.8,5.9-12.8,13
			c0,3.8,1.7,7.5,4.6,10c0.3,0.2,0.6,0.3,0.9,0.3c0.4,0,0.8-0.2,1-0.5c0.5-0.6,0.4-1.4-0.2-1.9C214.8,201.2,213.5,198.3,213.5,195.3
			z"/>
		<path class="st84" d="M237.1,195.8c0-3.8-1.7-7.5-4.6-10c-0.6-0.5-1.4-0.4-1.9,0.2c-0.5,0.6-0.4,1.4,0.2,1.9
			c2.3,2,3.7,4.8,3.7,7.9c0,5.6-4.5,10.2-10,10.3l2.2-2.2c0.5-0.5,0.5-1.4,0-1.9s-1.4-0.5-1.9,0l-4.5,4.5c-0.5,0.5-0.5,1.4,0,1.9
			l4.5,4.5c0.3,0.3,0.6,0.4,1,0.4c0.3,0,0.7-0.1,1-0.4c0.5-0.5,0.5-1.4,0-1.9l-2.2-2.2C231.4,208.7,237.1,202.9,237.1,195.8z"/>
	</g>
</g>
<g>
	<g>
		<path class="st88" d="M626.3,134.6l20.2-25.4c1.3-1.7,0.2-4.1-2-4.1h-8.3c-1.4,0-2.5-1.1-2.5-2.5V75.4c0-1.4-1.1-2.5-2.5-2.5
			h-13.8c-1.4,0-2.5,1.1-2.5,2.5v27.3c0,1.4-1.1,2.5-2.5,2.5h-8.3c-2,0-3.3,2.3-2,4.1l20.3,25.4
			C623.5,135.8,625.4,135.8,626.3,134.6z"/>
	</g>
	<g>
		<path class="st84" d="M622.4,128.5c0,0.2-0.2,0.5-0.3,0.6c-0.3,0.3-0.8,0.2-1.1-0.2l-14.9-18.8c-0.5-0.5-0.5-1.3-0.2-1.7
			c0.3-0.6,0.8-0.9,1.6-0.9h6.6c1.7,0,3.1-1.4,3.1-3.1V81.5c0-0.5,0.3-0.8,0.8-0.8s0.8,0.3,0.8,0.8v22.7c0,2.7-2.2,4.7-4.7,4.7h-6.6
			l0,0v0.2l0,0l14.9,18.9C622.3,128.2,622.4,128.3,622.4,128.5z"/>
	</g>
</g>
<g>
	<path class="st89" d="M614.4,214.1c-2.8-2.8-6.4-4.2-9.9-4.3c-1,0-2-0.7-2.1-1.9c-1.1-6.8-5.9-12.7-12.9-14.9c-3.2-1-6.5-1-9.6-0.3
		c-1,0.2-2.1-0.3-2.5-1.3c-4-10.6-15.5-17-26.9-14.2c-10.6,2.6-17.8,12.2-17.6,22.7c0,1.2-1,2.2-2.3,2.2c-3.1-0.2-6.3,0.3-9.4,1.9
		c-7.3,3.4-11.6,11.4-10.3,19.4c1.4,9.2,9.1,15.5,17.7,15.9l74.6-0.6c5.7-0.3,10.6-2.3,13.4-7.4
		C619.7,225.6,618.8,218.6,614.4,214.1L614.4,214.1z"/>
	<g>
		<path class="st90" d="M561.8,180.4c-3.2-0.8-6.6-0.8-9.8,0c-6.5,1.6-11.8,6.2-14.3,12.4c-0.2,0.6,0,1.2,0.6,1.4
			c0.1,0.1,0.3,0.1,0.4,0.1c0.4,0,0.9-0.3,1-0.7c2.2-5.5,7-9.7,12.8-11.1c2.9-0.7,5.8-0.7,8.7,0c0.6,0.1,1.2-0.2,1.3-0.8
			C562.8,181.1,562.4,180.5,561.8,180.4z"/>
		<path class="st90" d="M588.6,195.6c-0.6-0.2-1.2,0.1-1.4,0.7c-0.2,0.6,0.1,1.2,0.7,1.4c3,0.9,5.5,2.7,7.4,5.2
			c0.2,0.3,0.6,0.4,0.9,0.4c0.2,0,0.5-0.1,0.7-0.2c0.5-0.4,0.6-1.1,0.2-1.6C594.9,198.7,592,196.7,588.6,195.6z"/>
		<path class="st90" d="M611.5,215.3c-0.4-0.4-1.1-0.4-1.6,0c-0.4,0.4-0.4,1.1,0,1.6c3.4,3.5,4.2,9,1.8,13.3
			c-0.3,0.5-0.1,1.2,0.4,1.5c0.2,0.1,0.4,0.1,0.5,0.1c0.4,0,0.8-0.2,1-0.6C616.5,226.1,615.6,219.5,611.5,215.3z"/>
		<path class="st90" d="M516.6,212.3c-0.5-0.3-1.2-0.1-1.5,0.5c-1.7,3.2-2.3,6.8-1.8,10.5c0.1,0.5,0.6,0.9,1.1,0.9
			c0.1,0,0.1,0,0.2,0c0.6-0.1,1-0.7,0.9-1.3c-0.5-3.1,0.1-6.3,1.5-9.1C517.3,213.3,517.1,212.6,516.6,212.3z"/>
	</g>
</g>
<g>
	<path class="st89" d="M350.4,164.9c-6.9,0-12.8,2.5-18,6.9c-1.7,1.3-1.7,3.8,0,5.1l0.4,0.4c1.3,1.3,3.4,1.3,5.1,0
		c3.4-3,7.7-4.8,12.4-4.8c4.8,0,9,1.7,12.4,4.8c1.3,1.3,3.4,1.3,5.1,0l0.4-0.4c1.3-1.3,1.3-3.8,0-5.1
		C363.3,167.4,357.2,164.9,350.4,164.9L350.4,164.9z"/>
	<path class="st89" d="M350.4,146.9c-11.6,0-22.3,4.8-30.4,12c-1.7,1.3-1.7,3.8,0,5.1l0.4,0.4c1.3,1.3,3.4,1.3,4.8,0
		c6.5-5.9,15.4-9.9,25.2-9.9s18.5,3.8,25.2,9.9c1.3,1.3,3.4,1.3,4.8,0l0.4-0.4c1.3-1.3,1.3-3.8,0-5.1
		C372.7,151.5,362,146.9,350.4,146.9L350.4,146.9z"/>
	<path class="st89" d="M308,152.4c1.7,1.7,3.8,1.7,5.5,0.4c9.4-9,22.7-14.5,36.8-14.5c14.1,0,26.9,5.5,36.8,14.5
		c1.3,1.3,3.8,1.3,5.1,0l0.4-0.4c1.3-1.3,1.3-3.8,0-5.1c-11.1-10.3-25.7-16.8-42-16.8s-31.3,6.5-42,16.8
		C306.7,148.6,306.7,150.7,308,152.4L308,152.4z"/>
	<circle class="st89" cx="350.4" cy="191.4" r="6.9"/>
</g>
<g>
	<g>
		<path class="st88" d="M668,66.3l-20.2,25.4c-1.3,1.7-0.2,4.1,2,4.1h8.3c1.4,0,2.5,1.1,2.5,2.5v27.2c0,1.4,1.1,2.5,2.5,2.5h13.8
			c1.4,0,2.5-1.1,2.5-2.5V98.2c0-1.4,1.1-2.5,2.5-2.5h8.3c2,0,3.3-2.3,2-4.1l-20.3-25.4C670.8,65.1,668.9,65.1,668,66.3z"/>
	</g>
	<g>
		<path class="st84" d="M671.9,72.4c0-0.2,0.2-0.5,0.3-0.6c0.3-0.3,0.8-0.2,1.1,0.2l14.9,18.8c0.5,0.5,0.5,1.3,0.2,1.7
			c-0.3,0.6-0.8,0.9-1.6,0.9h-6.6c-1.7,0-3.1,1.4-3.1,3.1v22.9c0,0.5-0.3,0.8-0.8,0.8s-0.8-0.3-0.8-0.8V96.7c0-2.7,2.2-4.7,4.7-4.7
			h6.6l0,0v-0.2l0,0l-14.9-18.9C672,72.7,671.9,72.6,671.9,72.4z"/>
	</g>
</g>
<g>
	
		<linearGradient id="SVGID_00000025418365797588599300000010155866971447762328_" gradientUnits="userSpaceOnUse" x1="629.8738" y1="435.0089" x2="652.342" y2="394.6432" gradientTransform="matrix(6.123234e-17 1 1 -6.123234e-17 247.9661 -310.412)">
		<stop  offset="0" style="stop-color:#A178B5"/>
		<stop  offset="1" style="stop-color:#C186E4;stop-opacity:0"/>
	</linearGradient>
	<path style="fill:url(#SVGID_00000025418365797588599300000010155866971447762328_);" d="M664.4,343.8l15-11.9c1.2-1,1.1-2.8,0-3.6
		l-15.1-11.6c-0.8-0.7-2.1,0-2.1,1.1v6.4c0,0.7-0.6,1.4-1.4,1.4l-12.5,0.1c-2.8,0-5,2.2-4.9,5c0,2.8,2.2,5,5,4.9l12.5-0.1
		c0.7,0,1.4,0.6,1.4,1.4v6.4C662.3,344,663.6,344.5,664.4,343.8z"/>
</g>
<g>
	
		<linearGradient id="SVGID_00000081608428896547086010000000463959479650993542_" gradientUnits="userSpaceOnUse" x1="662.2503" y1="455.9937" x2="675.4094" y2="432.353" gradientTransform="matrix(6.123234e-17 1 1 -6.123234e-17 247.9661 -310.412)">
		<stop  offset="0" style="stop-color:#A178B5"/>
		<stop  offset="1" style="stop-color:#C186E4;stop-opacity:0"/>
	</linearGradient>
	<path style="fill:url(#SVGID_00000081608428896547086010000000463959479650993542_);" d="M693.1,366.1l8.7-6.9
		c0.7-0.6,0.7-1.5,0-2.1l-8.9-6.8c-0.6-0.4-1.2,0-1.2,0.7v3.7c0,0.4-0.3,0.8-0.8,0.8l-7.3,0.1c-1.5,0-2.9,1.2-2.9,2.9
		c0,1.5,1.2,2.9,2.9,2.9l7.3-0.1c0.4,0,0.8,0.3,0.8,0.8v3.7C691.8,366.1,692.5,366.4,693.1,366.1L693.1,366.1z"/>
</g>
<g>
	
		<linearGradient id="SVGID_00000035518320612421558130000011419823552796926125_" gradientUnits="userSpaceOnUse" x1="626.6812" y1="383.2886" x2="635.0396" y2="368.2724" gradientTransform="matrix(6.123234e-17 1 1 -6.123234e-17 247.9661 -310.412)">
		<stop  offset="0" style="stop-color:#A178B5"/>
		<stop  offset="1" style="stop-color:#C186E4;stop-opacity:0"/>
	</linearGradient>
	<path style="fill:url(#SVGID_00000035518320612421558130000011419823552796926125_);" d="M624.3,325.4l5.5-4.4c0.4-0.4,0.4-1,0-1.4
		l-5.7-4.3c-0.3-0.3-0.8,0-0.8,0.4v2.4c0,0.3-0.3,0.6-0.6,0.6H618c-1,0-1.8,0.8-1.8,1.8s0.8,1.8,1.8,1.8h4.7c0.3,0,0.6,0.3,0.6,0.6
		v2.4C623.7,325.4,624.1,325.7,624.3,325.4L624.3,325.4z"/>
</g>
<g>
	
		<linearGradient id="SVGID_00000125587137426917522080000012245297880364165284_" gradientUnits="userSpaceOnUse" x1="558.4922" y1="538.9673" x2="579.3321" y2="501.5272" gradientTransform="matrix(6.123234e-17 1 1 -6.123234e-17 247.9661 -310.412)">
		<stop  offset="0" style="stop-color:#A178B5"/>
		<stop  offset="1" style="stop-color:#C186E4;stop-opacity:0"/>
	</linearGradient>
	<path style="fill:url(#SVGID_00000125587137426917522080000012245297880364165284_);" d="M769.7,270.7l13.9-10.9
		c1.1-0.8,1.1-2.5,0-3.5l-14-10.8c-0.8-0.7-1.9,0-1.9,1v5.8c0,0.7-0.6,1.2-1.2,1.2l-11.6,0.1c-2.5,0-4.6,2.1-4.6,4.6
		c0,2.5,2.1,4.6,4.6,4.6l11.6-0.1c0.7,0,1.2,0.6,1.2,1.2v5.8C767.8,270.8,768.9,271.4,769.7,270.7z"/>
</g>
<g>
	
		<linearGradient id="SVGID_00000077318469408494008960000000775039352056714884_" gradientUnits="userSpaceOnUse" x1="589.6558" y1="300.0802" x2="600.7001" y2="280.2396" gradientTransform="matrix(6.123234e-17 1 1 -6.123234e-17 247.9661 -310.412)">
		<stop  offset="0" style="stop-color:#A178B5"/>
		<stop  offset="1" style="stop-color:#C186E4;stop-opacity:0"/>
	</linearGradient>
	<path style="fill:url(#SVGID_00000077318469408494008960000000775039352056714884_);" d="M539,291.2l7.3-5.8c0.6-0.4,0.6-1.4,0-1.8
		l-7.5-5.7c-0.4-0.3-1.1,0-1.1,0.6v3c0,0.4-0.3,0.7-0.7,0.7h-6.1c-1.4,0-2.4,1.1-2.4,2.4c0,1.4,1.1,2.4,2.4,2.4h6.1
		c0.4,0,0.7,0.3,0.7,0.7v3C537.9,291.3,538.6,291.6,539,291.2L539,291.2z"/>
</g>
<g>
	
		<linearGradient id="SVGID_00000081616386806026291490000018015447107726668720_" gradientUnits="userSpaceOnUse" x1="579.0128" y1="398.1031" x2="608.3741" y2="345.3535" gradientTransform="matrix(6.123234e-17 1 1 -6.123234e-17 247.9661 -310.412)">
		<stop  offset="0" style="stop-color:#A178B5"/>
		<stop  offset="1" style="stop-color:#C186E4;stop-opacity:0"/>
	</linearGradient>
	<path style="fill:url(#SVGID_00000081616386806026291490000018015447107726668720_);" d="M621.8,300.5l19.5-15.4
		c1.6-1.2,1.6-3.5,0-4.9L621.6,265c-1.2-1-2.7,0-2.7,1.4v8.2c0,1-0.8,1.8-1.8,1.8l-16.4,0.2c-3.5,0-6.4,2.9-6.4,6.4s2.9,6.4,6.4,6.4
		l16.4-0.2c1,0,1.8,0.8,1.8,1.8v8.2C619.1,300.6,620.7,301.4,621.8,300.5z"/>
</g>
<path class="st89" d="M567.5,424.1h-59.6c-4.3,0-7.8,3.5-7.8,7.8v33.2c0,4.3,3.5,7.8,7.8,7.8h59.6c4.3,0,7.8-3.5,7.8-7.8v-33.2
	C575.3,427.6,571.8,424.1,567.5,424.1z M568.1,432.9l-18.4,10.4l15.6,15.6c0.4,0.4,0.4,1.2,0,1.6c-0.2,0.2-0.6,0.4-0.8,0.4
	s-0.6-0.2-0.8-0.4l-16.2-16.2l-6.1,3.3c-1.2,0.6-2.5,1-3.9,1s-2.7-0.4-3.9-1l-5.1-2.9l-15.6,15.6c-0.2,0.2-0.6,0.4-0.8,0.4
	s-0.6-0.2-0.8-0.4c-0.4-0.4-0.4-1.2,0-1.6l15.2-15.2l-19.4-10.8c-0.6-0.4-0.8-1-0.4-1.6s1-0.8,1.6-0.4l26.6,14.9c1.8,1,3.7,1,5.5,0
	l26.6-14.9c0.6-0.4,1.2-0.2,1.6,0.4C568.8,431.9,568.6,432.5,568.1,432.9L568.1,432.9z"/>
<g>
	<path class="st84" d="M574.4,330.9h5.1v-30.2c0-6.9,5.8-12.7,12.7-12.7s12.7,5.8,12.7,12.7v30.2h5.1v-30.2c0-9.8-8-17.8-17.8-17.8
		s-17.8,8-17.8,17.8V330.9L574.4,330.9z"/>
	<path class="st88" d="M609.5,307.8H575c-3,0-5.4,2.2-5.4,4.9v31.6c0,2.7,2.4,4.9,5.4,4.9h34.5c3,0,5.4-2.2,5.4-4.9v-31.6
		C614.6,310,612.2,307.8,609.5,307.8z"/>
	<path class="st84" d="M585.4,322.9c0-3.8,3.1-6.7,6.7-6.7c0.7,0,1.5,0.2,2.2,0.4c2,0.8,3.6,2.3,4.4,4.4c0.9,2.7,0,5.6-2.4,7.5
		c-1.1,0.7-1.6,2-1.5,3.3v6.5c0,1.5-1.1,2.5-2.5,2.5s-2.5-1.1-2.5-2.5v-6.5c0-1.3-0.5-2.5-1.6-3.3
		C586.5,327.1,585.4,325.1,585.4,322.9z"/>
</g>
</svg>
